<svg width="589" height="57" viewBox="0 0 589 57" fill="none" xmlns="http://www.w3.org/2000/svg">
<path d="M10.304 52.128C9.23733 52.128 8.10667 51.808 6.912 51.168C5.71733 50.528 4.608 49.4827 3.584 48.032C2.60267 46.5813 1.792 44.6613 1.152 42.272C0.512 39.8827 0.192 36.9387 0.192 33.44C0.192 30.6667 0.533334 27.8507 1.216 24.992C1.94133 22.0907 3.05067 19.36 4.544 16.8C6.08 14.1973 8.04267 11.9573 10.432 10.08C12.864 8.16 15.808 6.83733 19.264 6.112C20.7573 5.77067 22.4427 5.45066 24.32 5.152C26.24 4.81067 28.1813 4.512 30.144 4.256C32.1493 3.95733 34.0267 3.72267 35.776 3.552C37.568 3.38133 39.0827 3.296 40.32 3.296C42.3253 3.296 43.7547 3.65866 44.608 4.384C45.504 5.06666 45.952 5.728 45.952 6.368C45.952 6.79467 45.7813 7.2 45.44 7.584C45.0987 7.92533 44.4373 8.13866 43.456 8.224C43.072 8.26667 42.2613 8.37333 41.024 8.544C39.7867 8.672 38.2933 8.864 36.544 9.12C34.7947 9.376 32.96 9.65333 31.04 9.952C29.1627 10.208 27.328 10.4853 25.536 10.784C23.7867 11.04 22.272 11.2747 20.992 11.488C17.4507 12.1707 14.656 13.344 12.608 15.008C10.56 16.672 9.06667 18.6347 8.128 20.896C7.18933 23.1573 6.592 25.4827 6.336 27.872C8.04267 27.488 9.89867 27.0827 11.904 26.656C13.952 26.2293 15.9147 25.8453 17.792 25.504C19.6693 25.12 21.2907 24.8213 22.656 24.608C24.064 24.3947 25.0027 24.288 25.472 24.288C26.368 24.288 26.9227 24.48 27.136 24.864C27.392 25.248 27.52 25.7387 27.52 26.336C27.52 27.488 25.6427 28.768 21.888 30.176C18.176 31.584 12.9067 32.7787 6.08 33.76C6.08 35.2107 6.10133 36.704 6.144 38.24C6.22933 39.7333 6.35733 41.12 6.528 42.4C6.69867 43.68 6.912 44.704 7.168 45.472C7.424 46.24 7.76533 46.624 8.192 46.624C9.17333 46.624 10.4533 46.3253 12.032 45.728C13.6533 45.1307 15.3387 44.4053 17.088 43.552C18.8373 42.6987 20.4373 41.8667 21.888 41.056C23.3813 40.2453 24.4693 39.6053 25.152 39.136C25.9627 38.624 26.8373 38.0693 27.776 37.472C28.7147 36.8747 29.4187 36.576 29.888 36.576C30.4853 36.576 30.784 36.9173 30.784 37.6C30.784 37.984 30.4427 38.7307 29.76 39.84C29.12 40.9493 28.1813 42.208 26.944 43.616C25.7067 44.9813 24.2347 46.3253 22.528 47.648C20.864 48.928 18.9867 49.9947 16.896 50.848C14.848 51.7013 12.6507 52.128 10.304 52.128ZM49.5985 50.528C48.3612 50.528 47.2518 49.824 46.2705 48.416C45.2892 47.008 44.7985 45.1947 44.7985 42.976C44.7985 40.544 45.1185 37.9413 45.7585 35.168C46.4412 32.3947 47.2732 29.5787 48.2545 26.72C49.2358 23.8187 50.1958 21.024 51.1345 18.336C51.3478 17.7813 51.6465 17.376 52.0305 17.12C52.4572 16.8213 53.0972 16.672 53.9505 16.672C55.4865 16.672 56.2545 17.4187 56.2545 18.912C56.2545 19.2533 56.0838 20.0213 55.7425 21.216C55.4012 22.4107 54.9532 23.8827 54.3985 25.632C53.8865 27.3813 53.3532 29.28 52.7985 31.328C52.2438 33.3333 51.7532 35.36 51.3265 37.408C50.8998 39.456 50.6012 41.3547 50.4305 43.104C51.1132 42.3787 51.8812 41.2693 52.7345 39.776C53.6305 38.2827 54.5905 36.5973 55.6145 34.72C56.6385 32.8 57.7052 30.88 58.8145 28.96C59.9238 26.9973 61.0332 25.2053 62.1425 23.584C63.2945 21.92 64.4038 20.5973 65.4705 19.616C66.5798 18.592 67.6038 18.08 68.5425 18.08C69.9078 18.08 71.0598 18.5067 71.9985 19.36C72.9798 20.1707 73.7265 21.6213 74.2385 23.712C74.7932 25.76 75.0705 28.6613 75.0705 32.416C75.0705 34.4213 75.2625 36.2987 75.6465 38.048C76.0732 39.7973 76.7345 41.2053 77.6305 42.272C78.5692 43.296 79.7638 43.808 81.2145 43.808C83.3905 43.808 85.3318 43.424 87.0385 42.656C88.7452 41.8453 90.2172 40.9493 91.4545 39.968C92.7345 38.944 93.8012 38.048 94.6545 37.28C95.5078 36.4693 96.1692 36.064 96.6385 36.064C97.6198 36.064 98.1105 36.576 98.1105 37.6C98.1105 38.0267 97.7905 38.7093 97.1505 39.648C96.5532 40.544 95.6998 41.568 94.5905 42.72C93.5238 43.8293 92.2865 44.9173 90.8785 45.984C89.5132 47.008 88.0412 47.8613 86.4625 48.544C84.9265 49.2267 83.3692 49.568 81.7905 49.568C78.8465 49.568 76.4358 48.992 74.5585 47.84C72.7238 46.688 71.3585 44.7893 70.4625 42.144C69.6092 39.4987 69.1825 35.9573 69.1825 31.52C69.1825 29.088 69.0332 27.3173 68.7345 26.208C68.4785 25.056 67.9878 24.288 67.2625 23.904C66.7505 24.8 66.0892 26.08 65.2785 27.744C64.4678 29.3653 63.5292 31.1787 62.4625 33.184C61.4385 35.1893 60.3505 37.216 59.1985 39.264C58.0892 41.2693 56.9585 43.1253 55.8065 44.832C54.6545 46.5387 53.5452 47.9253 52.4785 48.992C51.4118 50.016 50.4518 50.528 49.5985 50.528ZM89.5995 31.52C88.4475 31.4347 87.9142 30.688 87.9995 29.28C88.0422 28.9387 88.2768 28.5333 88.7035 28.064C89.1302 27.552 89.6208 27.2747 90.1755 27.232C91.4982 27.104 93.1195 26.912 95.0395 26.656C97.0022 26.3573 99.1568 26.016 101.504 25.632C101.93 23.5413 102.442 21.344 103.04 19.04C103.637 16.736 104.298 14.496 105.024 12.32C105.749 10.1013 106.517 8.096 107.328 6.304C108.138 4.512 108.992 3.104 109.888 2.08C110.357 1.61067 110.784 1.29067 111.168 1.12C111.552 0.906666 111.893 0.799999 112.192 0.799999C112.789 0.799999 113.258 1.056 113.6 1.568C113.984 2.08 114.176 2.656 114.176 3.296C114.176 3.63733 114.112 3.97866 113.984 4.32C113.13 6.70933 112.213 9.65333 111.232 13.152C110.25 16.6507 109.205 20.4693 108.096 24.608C112.021 23.968 115.946 23.2853 119.872 22.56C123.797 21.8347 127.168 21.1733 129.984 20.576C130.794 20.2347 131.413 20.2987 131.84 20.768C132.309 21.2373 132.544 21.7067 132.544 22.176C132.544 22.7733 132.373 23.2213 132.032 23.52C131.733 23.8187 131.413 24.0747 131.072 24.288L131.008 24.352C130.154 24.6933 128.874 25.0987 127.168 25.568C125.461 25.9947 123.498 26.464 121.28 26.976C119.061 27.4453 116.693 27.9147 114.176 28.384C111.701 28.8533 109.248 29.28 106.816 29.664C105.834 33.4187 104.832 37.28 103.808 41.248C102.826 45.1733 101.845 49.0347 100.864 52.832C100.437 54.368 99.9462 55.328 99.3915 55.712C98.8795 56.1387 98.3248 56.352 97.7275 56.352C97.0448 56.352 96.4475 56.096 95.9355 55.584C95.4662 55.072 95.4022 54.0267 95.7435 52.448L100.416 30.624C97.8555 31.008 95.5942 31.2853 93.6315 31.456C91.7115 31.6267 90.3675 31.648 89.5995 31.52ZM127.924 51.216C127.241 51.216 126.665 50.9387 126.196 50.384C125.727 49.8293 125.492 49.0613 125.492 48.08C125.492 47.3547 125.641 46.16 125.94 44.496C126.281 42.7893 126.644 40.8053 127.028 38.544C127.455 36.2827 127.817 33.936 128.116 31.504C128.415 29.0293 128.564 26.6613 128.564 24.4C128.564 23.2907 128.841 22.48 129.396 21.968C129.993 21.4133 130.655 21.136 131.38 21.136C132.063 21.136 132.575 21.5627 132.916 22.416C133.257 23.2693 133.321 24.976 133.108 27.536C135.071 23.184 137.225 19.6853 139.572 17.04C141.961 14.352 144.329 12.432 146.676 11.28C149.023 10.0853 151.135 9.488 153.012 9.488C154.249 9.488 155.145 9.744 155.7 10.256C156.297 10.7253 156.596 11.2587 156.596 11.856C156.596 12.6667 156.255 13.3067 155.572 13.776C154.932 14.2027 153.801 14.7147 152.18 15.312C150.303 16.0373 148.575 16.8907 146.996 17.872C145.46 18.8107 143.988 20.048 142.58 21.584C141.215 23.12 139.871 25.0827 138.548 27.472C137.225 29.8187 135.903 32.72 134.58 36.176C133.257 39.632 131.849 43.792 130.356 48.656C130.1 49.5947 129.759 50.256 129.332 50.64C128.948 51.024 128.479 51.216 127.924 51.216ZM179.121 24.416C179.121 25.7813 178.694 27.1253 177.841 28.448C176.987 29.728 175.857 30.9653 174.449 32.16C173.041 33.312 171.483 34.4 169.777 35.424C168.07 36.448 166.363 37.344 164.657 38.112C162.95 38.88 161.393 39.4987 159.985 39.968C159.643 41.632 159.473 43.104 159.473 44.384C159.473 45.1947 159.665 45.7707 160.049 46.112C160.433 46.4533 161.03 46.624 161.841 46.624C163.633 46.624 165.531 46.304 167.537 45.664C169.542 45.024 171.59 44.192 173.681 43.168C175.771 42.144 177.777 41.056 179.697 39.904C181.617 38.752 183.366 37.664 184.944 36.64C186.566 35.616 187.91 34.784 188.977 34.144C190.043 33.504 190.747 33.184 191.089 33.184C191.601 33.184 191.985 33.3547 192.241 33.696C192.539 33.9947 192.689 34.3573 192.689 34.784C192.689 35.1253 192.155 35.7867 191.089 36.768C190.065 37.7493 188.678 38.9013 186.929 40.224C185.179 41.504 183.217 42.8267 181.041 44.192C178.865 45.5573 176.603 46.8373 174.257 48.032C171.953 49.2267 169.713 50.1867 167.537 50.912C165.403 51.6373 163.483 52 161.777 52C159.558 52 157.83 51.168 156.593 49.504C155.355 47.84 154.737 45.2587 154.737 41.76C154.737 39.4133 155.035 37.0453 155.633 34.656C156.273 32.2667 157.126 29.984 158.193 27.808C159.302 25.5893 160.518 23.6267 161.841 21.92C163.206 20.1707 164.635 18.8053 166.128 17.824C167.622 16.8 169.073 16.288 170.481 16.288C173.169 16.288 175.281 17.0347 176.817 18.528C178.353 20.0213 179.121 21.984 179.121 24.416ZM161.329 35.04C162.651 34.2293 164.017 33.376 165.425 32.48C166.833 31.584 168.134 30.6667 169.329 29.728C170.523 28.7893 171.483 27.808 172.209 26.784C172.977 25.7173 173.361 24.6293 173.361 23.52C173.361 21.9413 172.507 21.152 170.801 21.152C169.734 21.152 168.603 21.8347 167.409 23.2C166.257 24.5227 165.147 26.2507 164.081 28.384C163.014 30.5173 162.097 32.736 161.329 35.04ZM244.371 24.416C244.371 25.7813 243.944 27.1253 243.091 28.448C242.237 29.728 241.107 30.9653 239.699 32.16C238.291 33.312 236.733 34.4 235.027 35.424C233.32 36.448 231.613 37.344 229.907 38.112C228.2 38.88 226.643 39.4987 225.235 39.968C224.893 41.632 224.723 43.104 224.723 44.384C224.723 45.1947 224.915 45.7707 225.299 46.112C225.683 46.4533 226.28 46.624 227.091 46.624C228.883 46.624 230.781 46.304 232.787 45.664C234.792 45.024 236.84 44.192 238.931 43.168C241.021 42.144 243.027 41.056 244.947 39.904C246.867 38.752 248.616 37.664 250.194 36.64C251.816 35.616 253.16 34.784 254.227 34.144C255.293 33.504 255.997 33.184 256.339 33.184C256.851 33.184 257.235 33.3547 257.491 33.696C257.789 33.9947 257.939 34.3573 257.939 34.784C257.939 35.1253 257.405 35.7867 256.339 36.768C255.315 37.7493 253.928 38.9013 252.179 40.224C250.429 41.504 248.467 42.8267 246.291 44.192C244.115 45.5573 241.853 46.8373 239.507 48.032C237.203 49.2267 234.963 50.1867 232.787 50.912C230.653 51.6373 228.733 52 227.027 52C224.808 52 223.08 51.168 221.843 49.504C220.605 47.84 219.987 45.2587 219.987 41.76C219.987 39.4133 220.285 37.0453 220.883 34.656C221.523 32.2667 222.376 29.984 223.443 27.808C224.552 25.5893 225.768 23.6267 227.091 21.92C228.456 20.1707 229.885 18.8053 231.378 17.824C232.872 16.8 234.323 16.288 235.731 16.288C238.419 16.288 240.531 17.0347 242.067 18.528C243.603 20.0213 244.371 21.984 244.371 24.416ZM226.579 35.04C227.901 34.2293 229.267 33.376 230.675 32.48C232.083 31.584 233.384 30.6667 234.579 29.728C235.773 28.7893 236.733 27.808 237.459 26.784C238.227 25.7173 238.611 24.6293 238.611 23.52C238.611 21.9413 237.757 21.152 236.051 21.152C234.984 21.152 233.853 21.8347 232.659 23.2C231.507 24.5227 230.397 26.2507 229.331 28.384C228.264 30.5173 227.347 32.736 226.579 35.04ZM303.865 50.08C303.822 50.7627 303.545 51.3173 303.033 51.744C302.521 52.1707 301.923 52.384 301.241 52.384C300.473 52.384 299.833 52.128 299.321 51.616C298.809 51.104 298.553 50.3147 298.553 49.248C298.553 46.4747 298.681 43.4667 298.937 40.224C299.193 36.9387 299.513 33.696 299.897 30.496C300.281 27.2533 300.665 24.2667 301.049 21.536C299.641 23.5413 298.105 25.76 296.441 28.192C294.819 30.624 293.155 33.0347 291.449 35.424C289.742 37.8133 288.078 40.0107 286.457 42.016C284.835 43.9787 283.363 45.5787 282.041 46.816C280.718 48.0107 279.63 48.608 278.777 48.608C277.198 48.608 275.833 47.9893 274.681 46.752C273.529 45.472 272.953 43.872 272.953 41.952C272.953 41.184 273.038 40.1387 273.209 38.816C273.379 37.4507 273.571 36.0213 273.785 34.528C273.998 33.0347 274.19 31.648 274.361 30.368C274.531 29.0453 274.617 28.064 274.617 27.424C274.617 26.8267 274.553 26.3147 274.425 25.888C274.339 25.4187 274.126 25.184 273.785 25.184C273.273 25.184 272.569 25.76 271.673 26.912C270.777 28.0213 269.774 29.4507 268.665 31.2C267.598 32.9493 266.489 34.8053 265.337 36.768C264.227 38.7307 263.182 40.5867 262.201 42.336C261.219 44.0427 260.387 45.3867 259.705 46.368C259.15 47.3067 258.638 47.9893 258.169 48.416C257.699 48.8427 257.123 49.056 256.441 49.056C255.63 49.056 254.883 48.6293 254.201 47.776C253.561 46.9227 253.241 45.8773 253.241 44.64C253.241 43.9147 253.369 42.784 253.625 41.248C253.881 39.6693 254.201 37.9413 254.585 36.064C255.011 34.1867 255.417 32.352 255.801 30.56C256.227 28.7253 256.59 27.168 256.889 25.888C257.23 24.4373 257.657 23.456 258.169 22.944C258.681 22.432 259.235 22.176 259.833 22.176C260.643 22.176 261.283 22.4747 261.753 23.072C262.265 23.6267 262.521 24.5013 262.521 25.696C262.521 25.9093 262.393 26.4853 262.137 27.424C261.881 28.32 261.561 29.4293 261.177 30.752C260.835 32.032 260.451 33.376 260.025 34.784C259.641 36.192 259.321 37.4933 259.065 38.688C260.003 37.1093 260.985 35.4027 262.009 33.568C263.075 31.7333 264.142 29.92 265.208 28.128C266.275 26.2933 267.342 24.6293 268.409 23.136C269.475 21.6 270.521 20.384 271.545 19.488C272.569 18.592 273.55 18.144 274.489 18.144C275.598 18.144 276.622 18.4853 277.561 19.168C278.542 19.8507 279.331 20.768 279.929 21.92C280.526 23.072 280.825 24.352 280.825 25.76C280.825 26.7413 280.654 28.128 280.312 29.92C279.971 31.6693 279.609 33.568 279.225 35.616C278.883 37.664 278.67 39.6053 278.585 41.44C278.585 41.8667 278.713 42.08 278.969 42.08C279.182 42.08 279.438 41.9307 279.737 41.632C280.974 40.2667 282.339 38.624 283.833 36.704C285.326 34.7413 286.841 32.672 288.377 30.496C289.955 28.32 291.513 26.1867 293.049 24.096C294.585 21.9627 296.014 20.0427 297.337 18.336C298.702 16.5867 299.897 15.2 300.921 14.176C301.987 13.152 302.819 12.64 303.417 12.64C304.697 12.64 305.678 13.0027 306.361 13.728C307.043 14.4533 307.385 15.6693 307.385 17.376C307.385 18.7413 307.278 20.512 307.065 22.688C306.894 24.864 306.659 27.232 306.361 29.792C306.105 32.352 305.806 34.9333 305.465 37.536C305.166 40.096 304.867 42.4853 304.569 44.704C304.27 46.88 304.035 48.672 303.865 50.08ZM360.837 52.896C358.746 52.896 356.933 52.4267 355.397 51.488C353.903 50.5067 352.751 49.248 351.941 47.712C351.13 46.176 350.725 44.5973 350.725 42.976C350.725 39.5627 351.322 36.448 352.517 33.632C353.711 30.7733 355.205 28.256 356.997 26.08C358.831 23.8613 360.709 21.984 362.628 20.448C364.591 18.912 366.362 17.76 367.941 16.992C369.562 16.1813 370.714 15.776 371.397 15.776C372.762 15.776 373.445 16.4587 373.445 17.824C373.445 18.464 373.018 19.2107 372.165 20.064C371.311 20.8747 370.223 21.8347 368.901 22.944C367.578 24.0533 366.17 25.312 364.677 26.72C363.183 28.0853 361.775 29.6427 360.453 31.392C359.13 33.0987 358.042 35.0187 357.189 37.152C356.335 39.2427 355.909 41.5467 355.909 44.064C355.909 46.624 356.954 47.904 359.045 47.904C360.965 47.904 362.927 47.5413 364.933 46.816C366.981 46.0907 368.986 45.152 370.949 44C372.954 42.8053 374.874 41.568 376.708 40.288C378.543 39.008 380.207 37.792 381.701 36.64C383.194 35.4453 384.453 34.4853 385.477 33.76C386.501 33.0347 387.226 32.672 387.653 32.672C388.506 32.672 388.933 33.1413 388.933 34.08C388.933 34.8053 388.442 35.7653 387.461 36.96C386.479 38.1547 385.157 39.456 383.493 40.864C381.829 42.272 379.973 43.7013 377.925 45.152C375.877 46.56 373.807 47.8613 371.717 49.056C369.626 50.208 367.621 51.1467 365.701 51.872C363.823 52.5547 362.202 52.896 360.837 52.896ZM422.234 54.304C420.997 54.304 420.122 53.8987 419.61 53.088C419.098 52.2773 418.842 50.8907 418.842 48.928C418.842 47.3493 419.034 45.3867 419.418 43.04C419.845 40.6933 420.357 38.112 420.954 35.296C421.551 32.4373 422.17 29.4933 422.81 26.464C420.207 30.0053 417.327 32.8427 414.17 34.976C411.055 37.0667 407.599 38.432 403.802 39.072C402.906 41.1627 401.882 43.0613 400.73 44.768C399.578 46.4747 398.319 47.84 396.954 48.864C395.589 49.888 394.159 50.4 392.666 50.4C390.831 50.4 389.274 49.6533 387.994 48.16C386.757 46.6667 386.138 44.4907 386.138 41.632C386.138 39.6693 386.394 37.92 386.906 36.384C387.418 34.8053 387.994 33.6747 388.634 32.992C388.037 31.4133 387.738 29.6 387.738 27.552C387.738 25.0347 388.314 22.816 389.466 20.896C390.618 18.9333 392.154 17.4187 394.074 16.352C395.994 15.2427 398.063 14.688 400.282 14.688C402.074 14.688 403.674 15.52 405.082 17.184C406.49 18.848 407.194 21.2373 407.194 24.352C407.194 27.2533 406.682 30.4747 405.658 34.016C408.005 33.12 410.351 31.7547 412.698 29.92C415.087 28.0853 417.391 25.888 419.61 23.328C421.829 20.768 423.834 17.9307 425.626 14.816C426.095 14.048 426.757 13.664 427.61 13.664C428.378 13.664 428.975 13.8987 429.402 14.368C429.871 14.7947 430.106 15.392 430.106 16.16C430.106 16.3733 429.978 17.0987 429.722 18.336C429.509 19.5733 429.21 21.152 428.826 23.072C428.485 24.992 428.101 27.104 427.674 29.408C427.247 31.712 426.821 34.0373 426.394 36.384C426.01 38.7307 425.69 40.9067 425.434 42.912C426.415 41.0347 427.525 38.9867 428.762 36.768C429.999 34.5493 431.258 32.3733 432.538 30.24C433.861 28.064 435.119 26.08 436.314 24.288C437.551 22.496 438.639 21.0667 439.578 20C440.559 18.8907 441.327 18.336 441.882 18.336C442.906 18.336 443.802 18.6773 444.57 19.36C445.338 20.0427 445.722 20.7467 445.722 21.472C445.722 22.4533 445.615 23.9467 445.402 25.952C445.189 27.9147 444.933 30.1333 444.634 32.608C444.335 35.0827 444.037 37.5573 443.738 40.032C443.439 42.5067 443.183 44.7467 442.97 46.752C442.757 48.7573 442.65 50.2507 442.65 51.232C442.65 51.872 442.373 52.448 441.818 52.96C441.263 53.472 440.645 53.728 439.962 53.728C439.493 53.728 439.087 53.5787 438.746 53.28C438.447 53.024 438.213 52.4267 438.042 51.488C437.871 50.5493 437.786 49.0987 437.786 47.136C437.786 45.216 437.85 43.1253 437.978 40.864C438.106 38.56 438.277 36.2773 438.49 34.016C438.746 31.712 439.023 29.6427 439.322 27.808C438.341 29.4293 437.21 31.3707 435.93 33.632C434.693 35.8933 433.391 38.2187 432.026 40.608C430.661 42.9973 429.338 45.2373 428.058 47.328C426.778 49.4187 425.626 51.104 424.602 52.384C423.578 53.664 422.789 54.304 422.234 54.304ZM400.026 35.04C400.538 33.4187 400.943 31.6907 401.242 29.856C401.583 27.9787 401.754 26.1013 401.754 24.224C401.754 23.1147 401.541 22.2187 401.114 21.536C400.687 20.8533 400.111 20.512 399.386 20.512C398.277 20.512 397.189 20.832 396.122 21.472C395.055 22.0693 394.159 22.9227 393.434 24.032C392.751 25.1413 392.41 26.464 392.41 28C392.41 29.92 393.135 31.5627 394.586 32.928C396.079 34.2507 397.893 34.9547 400.026 35.04ZM398.298 39.456C395.397 39.328 393.05 38.4747 391.258 36.896C391.173 37.4507 391.087 37.984 391.002 38.496C390.917 38.9653 390.874 39.4347 390.874 39.904C390.874 41.2267 391.087 42.272 391.514 43.04C391.983 43.7653 392.687 44.128 393.626 44.128C394.394 44.128 395.183 43.7013 395.994 42.848C396.805 41.9947 397.573 40.864 398.298 39.456ZM450.349 31.52C449.197 31.4347 448.664 30.688 448.749 29.28C448.792 28.9387 449.027 28.5333 449.453 28.064C449.88 27.552 450.371 27.2747 450.925 27.232C452.248 27.104 453.87 26.912 455.79 26.656C457.752 26.3573 459.907 26.016 462.254 25.632C462.68 23.5413 463.192 21.344 463.79 19.04C464.387 16.736 465.048 14.496 465.774 12.32C466.499 10.1013 467.267 8.096 468.078 6.304C468.888 4.512 469.742 3.104 470.638 2.08C471.107 1.61067 471.534 1.29067 471.918 1.12C472.302 0.906666 472.643 0.799999 472.942 0.799999C473.539 0.799999 474.008 1.056 474.35 1.568C474.734 2.08 474.926 2.656 474.926 3.296C474.926 3.63733 474.862 3.97866 474.734 4.32C473.88 6.70933 472.963 9.65333 471.982 13.152C471 16.6507 469.955 20.4693 468.846 24.608C472.771 23.968 476.696 23.2853 480.622 22.56C484.547 21.8347 487.918 21.1733 490.734 20.576C491.544 20.2347 492.163 20.2987 492.59 20.768C493.059 21.2373 493.294 21.7067 493.294 22.176C493.294 22.7733 493.123 23.2213 492.782 23.52C492.483 23.8187 492.163 24.0747 491.822 24.288L491.758 24.352C490.904 24.6933 489.624 25.0987 487.918 25.568C486.211 25.9947 484.248 26.464 482.03 26.976C479.811 27.4453 477.443 27.9147 474.926 28.384C472.451 28.8533 469.998 29.28 467.566 29.664C466.584 33.4187 465.582 37.28 464.558 41.248C463.576 45.1733 462.595 49.0347 461.614 52.832C461.187 54.368 460.696 55.328 460.142 55.712C459.63 56.1387 459.075 56.352 458.478 56.352C457.795 56.352 457.198 56.096 456.686 55.584C456.216 55.072 456.152 54.0267 456.494 52.448L461.166 30.624C458.606 31.008 456.344 31.2853 454.382 31.456C452.462 31.6267 451.117 31.648 450.349 31.52ZM489.335 53.664C487.714 53.664 486.37 52.9173 485.303 51.424C484.279 49.888 483.767 47.904 483.767 45.472C483.767 43.2107 484.322 40.9707 485.431 38.752C486.583 36.5333 488.098 34.4 489.975 32.352C491.852 30.304 493.9 28.4267 496.119 26.72C498.338 24.9707 500.556 23.456 502.775 22.176C505.036 20.896 507.106 19.8933 508.983 19.168C510.86 18.4427 512.354 18.08 513.463 18.08C514.06 18.08 514.551 18.208 514.935 18.464C515.319 18.6773 515.511 19.0827 515.511 19.68C515.511 20.064 515.362 20.4267 515.063 20.768C515.106 20.768 515.148 20.768 515.191 20.768C516.13 20.768 516.599 21.3227 516.599 22.432C516.599 22.816 516.45 23.6053 516.151 24.8C515.852 25.952 515.511 27.4027 515.127 29.152C514.743 30.9013 514.402 32.8427 514.103 34.976C513.804 37.0667 513.655 39.2 513.655 41.376C513.655 43.2107 514.359 44.128 515.767 44.128C517.346 44.128 518.946 43.7653 520.567 43.04C522.188 42.3147 523.767 41.44 525.303 40.416C526.839 39.3493 528.247 38.304 529.527 37.28C530.807 36.2133 531.895 35.3173 532.791 34.592C533.687 33.8667 534.327 33.504 534.711 33.504C535.052 33.504 535.351 33.6107 535.607 33.824C535.863 34.0373 535.991 34.3787 535.991 34.848C535.991 35.2747 535.564 36.0427 534.711 37.152C533.858 38.2613 532.727 39.52 531.319 40.928C529.911 42.336 528.332 43.7013 526.583 45.024C524.834 46.3467 523.042 47.4347 521.207 48.288C519.372 49.1413 517.623 49.568 515.959 49.568C514.679 49.568 513.506 49.184 512.439 48.416C511.415 47.6053 510.583 46.24 509.943 44.32C509.346 42.4 509.047 39.7547 509.047 36.384V34.784C506.956 38.24 504.759 41.3973 502.455 44.256C500.194 47.1147 497.932 49.3973 495.671 51.104C493.452 52.8107 491.34 53.664 489.335 53.664ZM512.247 22.688C512.034 22.7733 511.735 22.9013 511.351 23.072C509.388 23.968 507.34 25.0773 505.207 26.4C503.116 27.7227 501.068 29.1947 499.063 30.816C497.1 32.4373 495.33 34.1227 493.751 35.872C492.172 37.6213 490.914 39.392 489.975 41.184C489.036 42.976 488.567 44.7253 488.567 46.432C488.567 46.9867 488.674 47.4133 488.887 47.712C489.143 48.0107 489.57 48.16 490.167 48.16C491.02 48.16 492.13 47.6267 493.495 46.56C494.86 45.4507 496.354 44 497.975 42.208C499.639 40.416 501.303 38.432 502.967 36.256C504.631 34.08 506.21 31.8827 507.703 29.664C509.239 27.4453 510.562 25.3973 511.671 23.52C511.842 23.2213 512.034 22.944 512.247 22.688ZM527.099 31.52C525.947 31.4347 525.414 30.688 525.499 29.28C525.542 28.9387 525.777 28.5333 526.203 28.064C526.63 27.552 527.121 27.2747 527.675 27.232C528.998 27.104 530.62 26.912 532.54 26.656C534.502 26.3573 536.657 26.016 539.004 25.632C539.43 23.5413 539.942 21.344 540.54 19.04C541.137 16.736 541.798 14.496 542.524 12.32C543.249 10.1013 544.017 8.096 544.828 6.304C545.638 4.512 546.492 3.104 547.388 2.08C547.857 1.61067 548.284 1.29067 548.668 1.12C549.052 0.906666 549.393 0.799999 549.692 0.799999C550.289 0.799999 550.758 1.056 551.1 1.568C551.484 2.08 551.676 2.656 551.676 3.296C551.676 3.63733 551.612 3.97866 551.484 4.32C550.63 6.70933 549.713 9.65333 548.732 13.152C547.75 16.6507 546.705 20.4693 545.596 24.608C549.521 23.968 553.446 23.2853 557.372 22.56C561.297 21.8347 564.668 21.1733 567.484 20.576C568.294 20.2347 568.913 20.2987 569.34 20.768C569.809 21.2373 570.044 21.7067 570.044 22.176C570.044 22.7733 569.873 23.2213 569.532 23.52C569.233 23.8187 568.913 24.0747 568.572 24.288L568.508 24.352C567.654 24.6933 566.374 25.0987 564.668 25.568C562.961 25.9947 560.998 26.464 558.78 26.976C556.561 27.4453 554.193 27.9147 551.676 28.384C549.201 28.8533 546.748 29.28 544.316 29.664C543.334 33.4187 542.332 37.28 541.308 41.248C540.326 45.1733 539.345 49.0347 538.364 52.832C537.937 54.368 537.446 55.328 536.892 55.712C536.38 56.1387 535.825 56.352 535.228 56.352C534.545 56.352 533.948 56.096 533.436 55.584C532.966 55.072 532.902 54.0267 533.244 52.448L537.916 30.624C535.356 31.008 533.094 31.2853 531.132 31.456C529.212 31.6267 527.867 31.648 527.099 31.52ZM571.614 52.64C569.097 52.64 567.113 51.68 565.662 49.76C564.211 47.84 563.486 45.344 563.486 42.272C563.486 41.1627 563.635 39.9893 563.934 38.752C564.275 37.472 564.702 36.32 565.214 35.296C564.915 34.9973 564.681 34.592 564.51 34.08C564.339 33.5253 564.254 32.8427 564.254 32.032C564.254 29.5147 564.681 27.2107 565.534 25.12C566.387 23.0293 567.518 21.216 568.926 19.68C570.334 18.1013 571.891 16.8853 573.598 16.032C575.347 15.1787 577.118 14.752 578.91 14.752C581.854 14.752 584.243 15.8187 586.078 17.952C587.913 20.0427 588.83 23.2427 588.83 27.552C588.83 29.8133 588.489 32.1173 587.806 34.464C587.166 36.8107 586.27 39.072 585.118 41.248C584.009 43.424 582.707 45.3653 581.214 47.072C579.763 48.7787 578.206 50.144 576.542 51.168C574.921 52.1493 573.278 52.64 571.614 52.64ZM569.438 33.12C569.694 33.4613 569.822 33.9093 569.822 34.464C569.822 35.104 569.694 35.744 569.438 36.384C569.225 37.024 568.99 37.8987 568.734 39.008C568.478 40.1173 568.35 41.696 568.35 43.744C568.35 45.792 569.161 46.816 570.782 46.816C572.574 46.816 574.238 46.112 575.774 44.704C577.31 43.2533 578.675 41.3973 579.87 39.136C581.065 36.8747 581.982 34.464 582.622 31.904C583.305 29.3013 583.646 26.848 583.646 24.544C583.646 23.0507 583.369 22.0053 582.814 21.408C582.259 20.768 581.257 20.448 579.806 20.448C578.313 20.448 576.755 20.96 575.134 21.984C573.555 22.9653 572.233 24.3093 571.166 26.016C570.099 27.7227 569.566 29.6427 569.566 31.776C569.566 32.2453 569.523 32.6933 569.438 33.12Z" fill="#790AA5"/>
</svg>
