<svg width="410" height="41" viewBox="0 0 410 41" fill="none" xmlns="http://www.w3.org/2000/svg">
<path d="M8.2836 30.576C6.7476 30.576 5.39294 30.1493 4.2196 29.296C3.0676 28.4427 2.16094 27.2693 1.4996 25.776C0.859602 24.2827 0.539602 22.576 0.539602 20.656C0.539602 19.6533 0.688935 18.672 0.987602 17.712C1.3076 16.7307 1.70227 15.8133 2.1716 14.96C2.64094 14.0853 3.12094 13.3067 3.6116 12.624C3.44094 12.368 3.3556 11.9733 3.3556 11.44C3.3556 10.9067 3.5796 10.3093 4.0276 9.648C4.4756 8.98667 5.09427 8.34667 5.8836 7.728C6.67294 7.10933 7.59027 6.59733 8.6356 6.192C9.68094 5.78667 10.7903 5.584 11.9636 5.584C13.9049 5.584 15.5476 6 16.8916 6.832C18.2356 7.664 19.2489 8.76266 19.9316 10.128C20.6356 11.472 20.9876 12.944 20.9876 14.544C20.9876 16.848 20.6249 18.9707 19.8996 20.912C19.1743 22.8533 18.1929 24.5493 16.9556 26C15.7396 27.4507 14.3743 28.5813 12.8596 29.392C11.3663 30.1813 9.84094 30.576 8.2836 30.576ZM7.8036 10C7.88894 10.1067 7.9316 10.2133 7.9316 10.32C7.9316 10.4693 7.87827 10.6187 7.7716 10.768C7.68627 10.9173 7.5796 11.088 7.4516 11.28C7.04627 11.792 6.60894 12.464 6.1396 13.296C5.6916 14.128 5.26494 15.0453 4.8596 16.048C4.4756 17.0507 4.1556 18.0853 3.8996 19.152C3.6436 20.1973 3.5156 21.2 3.5156 22.16C3.5156 23.8027 3.88894 25.136 4.6356 26.16C5.38227 27.1627 6.4916 27.664 7.9636 27.664C9.07294 27.664 10.1289 27.3973 11.1316 26.864C12.1556 26.3307 13.0836 25.616 13.9156 24.72C14.7689 23.8027 15.5049 22.7893 16.1236 21.68C16.7423 20.5493 17.2223 19.3867 17.5636 18.192C17.9049 16.9973 18.0756 15.856 18.0756 14.768C18.0756 13.6373 17.8516 12.5813 17.4036 11.6C16.9556 10.6187 16.3049 9.82933 15.4516 9.232C14.5983 8.63467 13.5636 8.336 12.3476 8.336C11.3236 8.336 10.4383 8.50667 9.6916 8.848C8.96627 9.168 8.33694 9.552 7.8036 10ZM32.4594 31.28C30.8167 31.28 29.526 30.7467 28.5874 29.68C27.67 28.592 27.2114 27.0773 27.2114 25.136C27.2114 23.9413 27.3714 22.544 27.6914 20.944C28.0327 19.3227 28.4594 17.616 28.9714 15.824C29.5047 14.0107 30.0807 12.2187 30.6994 10.448C31.318 8.67733 31.9154 7.03467 32.4914 5.52C33.0887 3.984 33.6114 2.704 34.0594 1.68C34.3154 1.104 34.678 0.815998 35.1474 0.815998C35.7874 0.815998 36.1074 1.21066 36.1074 2C36.1074 2.256 35.99 2.77867 35.7554 3.568C35.5207 4.35733 35.2114 5.33867 34.8274 6.512C34.4434 7.664 34.0274 8.944 33.5794 10.352C33.1314 11.76 32.6727 13.2107 32.2034 14.704C31.7554 16.176 31.3394 17.6373 30.9554 19.088C30.5714 20.5173 30.262 21.8613 30.0274 23.12C29.7927 24.3787 29.6754 25.456 29.6754 26.352C29.6754 26.928 29.8247 27.3867 30.1234 27.728C30.4434 28.048 30.87 28.208 31.4034 28.208C32.3847 28.208 33.366 28.016 34.3474 27.632C35.35 27.2267 36.31 26.736 37.2274 26.16C38.1447 25.5627 38.9767 24.976 39.7234 24.4C40.4914 23.8027 41.142 23.312 41.6754 22.928C42.2087 22.5227 42.582 22.32 42.7954 22.32C43.2647 22.32 43.4994 22.576 43.4994 23.088C43.4994 23.2587 43.3287 23.5787 42.9874 24.048C42.646 24.496 42.1874 25.0293 41.6114 25.648C41.0354 26.2667 40.3634 26.9067 39.5954 27.568C38.8487 28.208 38.0594 28.816 37.2274 29.392C36.4167 29.9467 35.5954 30.3947 34.7634 30.736C33.9527 31.0987 33.1847 31.28 32.4594 31.28ZM44.1841 30.832C43.3734 30.832 42.7014 30.4587 42.1681 29.712C41.6561 28.944 41.4001 27.952 41.4001 26.736C41.4001 25.6053 41.6774 24.4853 42.2321 23.376C42.8081 22.2667 43.5654 21.2 44.5041 20.176C45.4428 19.152 46.4668 18.2133 47.5761 17.36C48.6854 16.4853 49.7948 15.728 50.9041 15.088C52.0348 14.448 53.0694 13.9467 54.0081 13.584C54.9468 13.2213 55.6934 13.04 56.2481 13.04C56.5468 13.04 56.7921 13.104 56.9841 13.232C57.1761 13.3387 57.2721 13.5413 57.2721 13.84C57.2721 14.032 57.1974 14.2133 57.0481 14.384C57.0694 14.384 57.0908 14.384 57.1121 14.384C57.5814 14.384 57.8161 14.6613 57.8161 15.216C57.8161 15.408 57.7414 15.8027 57.5921 16.4C57.4428 16.976 57.2721 17.7013 57.0801 18.576C56.8881 19.4507 56.7174 20.4213 56.5681 21.488C56.4188 22.5333 56.3441 23.6 56.3441 24.688C56.3441 25.6053 56.6961 26.064 57.4001 26.064C58.1894 26.064 58.9894 25.8827 59.8001 25.52C60.6108 25.1573 61.4001 24.72 62.1681 24.208C62.9361 23.6747 63.6401 23.152 64.2801 22.64C64.9201 22.1067 65.4641 21.6587 65.9121 21.296C66.3601 20.9333 66.6801 20.752 66.8721 20.752C67.0428 20.752 67.1921 20.8053 67.3201 20.912C67.4481 21.0187 67.5121 21.1893 67.5121 21.424C67.5121 21.6373 67.2988 22.0213 66.8721 22.576C66.4454 23.1307 65.8801 23.76 65.1761 24.464C64.4721 25.168 63.6828 25.8507 62.8081 26.512C61.9334 27.1733 61.0374 27.7173 60.1201 28.144C59.2028 28.5707 58.3281 28.784 57.4961 28.784C56.8561 28.784 56.2694 28.592 55.7361 28.208C55.2241 27.8027 54.8081 27.12 54.4881 26.16C54.1894 25.2 54.0401 23.8773 54.0401 22.192V21.392C52.9948 23.12 51.8961 24.6987 50.7441 26.128C49.6134 27.5573 48.4828 28.6987 47.3521 29.552C46.2428 30.4053 45.1868 30.832 44.1841 30.832ZM55.6401 15.344C55.5334 15.3867 55.3841 15.4507 55.1921 15.536C54.2108 15.984 53.1868 16.5387 52.1201 17.2C51.0748 17.8613 50.0508 18.5973 49.0481 19.408C48.0668 20.2187 47.1814 21.0613 46.3921 21.936C45.6028 22.8107 44.9734 23.696 44.5041 24.592C44.0348 25.488 43.8001 26.3627 43.8001 27.216C43.8001 27.4933 43.8534 27.7067 43.9601 27.856C44.0881 28.0053 44.3014 28.08 44.6001 28.08C45.0268 28.08 45.5814 27.8133 46.2641 27.28C46.9468 26.7253 47.6934 26 48.5041 25.104C49.3361 24.208 50.1681 23.216 51.0001 22.128C51.8321 21.04 52.6214 19.9413 53.3681 18.832C54.1361 17.7227 54.7974 16.6987 55.3521 15.76C55.4374 15.6107 55.5334 15.472 55.6401 15.344ZM54.3281 11.44C53.8161 11.44 53.5601 11.1413 53.5601 10.544C53.5601 10.2667 53.6668 9.86133 53.8801 9.328C54.0934 8.79467 54.3708 8.18667 54.7121 7.504C55.0534 6.82133 55.4161 6.11733 55.8001 5.392C56.2054 4.66667 56.6001 3.984 56.9841 3.344C57.1121 3.10933 57.2721 2.91733 57.4641 2.768C57.6774 2.61867 57.9121 2.544 58.1681 2.544C58.4028 2.544 58.6694 2.69333 58.9681 2.992C59.2668 3.26933 59.4161 3.67467 59.4161 4.208C59.4161 4.42133 59.2774 4.784 59.0001 5.296C58.7228 5.808 58.3708 6.39467 57.9441 7.056C57.5174 7.71733 57.0801 8.368 56.6321 9.008C56.1841 9.648 55.7788 10.2133 55.4161 10.704C55.2454 10.9387 55.0748 11.12 54.9041 11.248C54.7548 11.376 54.5628 11.44 54.3281 11.44ZM64.5691 40.08C63.9078 40.2507 63.4704 40.24 63.2571 40.048C63.0438 39.856 62.9371 39.6427 62.9371 39.408C62.9371 39.2373 62.9904 39.0667 63.0971 38.896C63.2038 38.7467 63.4064 38.576 63.7051 38.384C64.7718 37.7227 65.6358 36.7627 66.2971 35.504C66.9371 34.2667 67.4491 32.848 67.8331 31.248C68.2171 29.6693 68.5158 28.0587 68.7291 26.416C68.7931 25.9893 68.9104 25.6907 69.0811 25.52C69.2518 25.3493 69.4438 25.264 69.6571 25.264C70.1904 25.264 70.6598 25.488 71.0651 25.936C71.4918 26.3627 71.7051 27.024 71.7051 27.92C71.7051 29.4133 71.4811 30.8427 71.0331 32.208C70.5851 33.5733 69.9984 34.8107 69.2731 35.92C68.5478 37.0293 67.7691 37.9467 66.9371 38.672C66.1051 39.3973 65.3158 39.8667 64.5691 40.08ZM98.8819 30.704C98.4125 30.704 98.0499 30.5653 97.7939 30.288C97.5592 30.032 97.4419 29.7333 97.4419 29.392C97.4419 29.0933 97.5699 28.816 97.8259 28.56C98.1032 28.2827 98.4765 28.0373 98.9459 27.824C99.7992 27.376 100.599 26.928 101.346 26.48C102.114 26.032 102.733 25.552 103.202 25.04C103.671 24.528 103.906 23.984 103.906 23.408C103.906 22.9173 103.746 22.544 103.426 22.288C103.106 22.0107 102.669 21.872 102.114 21.872C101.794 21.872 101.346 21.936 100.77 22.064C100.194 22.1707 99.5645 22.2987 98.8819 22.448C98.2205 22.576 97.5699 22.704 96.9299 22.832C96.2899 22.9387 95.7459 22.992 95.2979 22.992C94.4872 22.992 93.8792 22.8 93.4739 22.416C93.0685 22.0107 92.8659 21.4667 92.8659 20.784C92.8659 20.4427 93.0685 19.9307 93.4739 19.248C93.8792 18.5653 94.4125 17.808 95.0739 16.976C95.7565 16.1227 96.5032 15.2693 97.3139 14.416C98.1245 13.5627 98.9459 12.7733 99.7779 12.048C100.631 11.3227 101.421 10.736 102.146 10.288C102.893 9.84 103.511 9.616 104.002 9.616C104.493 9.616 104.866 9.776 105.122 10.096C105.378 10.416 105.506 10.8213 105.506 11.312C105.506 11.696 105.442 12.0267 105.314 12.304C105.186 12.56 104.919 12.7627 104.514 12.912C104.13 13.0613 103.533 13.1467 102.722 13.168C101.89 13.8293 101.005 14.5867 100.066 15.44C99.1485 16.272 98.3059 17.136 97.5379 18.032C96.7912 18.9067 96.2472 19.7493 95.9059 20.56C96.6099 20.3253 97.4632 20.1227 98.4659 19.952C99.4899 19.76 100.525 19.664 101.57 19.664C103.213 19.664 104.429 20.0373 105.218 20.784C106.029 21.5093 106.434 22.4693 106.434 23.664C106.434 24.432 106.189 25.232 105.698 26.064C105.229 26.8747 104.61 27.632 103.842 28.336C103.074 29.04 102.253 29.6053 101.378 30.032C100.503 30.48 99.6712 30.704 98.8819 30.704ZM122.702 16.208C122.702 16.8907 122.489 17.5627 122.062 18.224C121.635 18.864 121.07 19.4827 120.366 20.08C119.662 20.656 118.883 21.2 118.03 21.712C117.177 22.224 116.323 22.672 115.47 23.056C114.617 23.44 113.838 23.7493 113.134 23.984C112.963 24.816 112.878 25.552 112.878 26.192C112.878 26.5973 112.974 26.8853 113.166 27.056C113.358 27.2267 113.657 27.312 114.062 27.312C114.958 27.312 115.907 27.152 116.91 26.832C117.913 26.512 118.937 26.096 119.982 25.584C121.027 25.072 122.03 24.528 122.99 23.952C123.95 23.376 124.825 22.832 125.614 22.32C126.425 21.808 127.097 21.392 127.63 21.072C128.163 20.752 128.515 20.592 128.686 20.592C128.942 20.592 129.134 20.6773 129.262 20.848C129.411 20.9973 129.486 21.1787 129.486 21.392C129.486 21.5627 129.219 21.8933 128.686 22.384C128.174 22.8747 127.481 23.4507 126.606 24.112C125.731 24.752 124.75 25.4133 123.662 26.096C122.574 26.7787 121.443 27.4187 120.27 28.016C119.118 28.6133 117.998 29.0933 116.91 29.456C115.843 29.8187 114.883 30 114.03 30C112.921 30 112.057 29.584 111.438 28.752C110.819 27.92 110.51 26.6293 110.51 24.88C110.51 23.7067 110.659 22.5227 110.958 21.328C111.278 20.1333 111.705 18.992 112.238 17.904C112.793 16.7947 113.401 15.8133 114.062 14.96C114.745 14.0853 115.459 13.4027 116.206 12.912C116.953 12.4 117.678 12.144 118.382 12.144C119.726 12.144 120.782 12.5173 121.55 13.264C122.318 14.0107 122.702 14.992 122.702 16.208ZM113.806 21.52C114.467 21.1147 115.15 20.688 115.854 20.24C116.558 19.792 117.209 19.3333 117.806 18.864C118.403 18.3947 118.883 17.904 119.246 17.392C119.63 16.8587 119.822 16.3147 119.822 15.76C119.822 14.9707 119.395 14.576 118.542 14.576C118.009 14.576 117.443 14.9173 116.846 15.6C116.27 16.2613 115.715 17.1253 115.182 18.192C114.649 19.2587 114.19 20.368 113.806 21.52ZM125.14 38.64C124.094 38.64 123.23 38.2987 122.548 37.616C121.865 36.9333 121.524 36.112 121.524 35.152C121.524 34.4053 121.897 33.7653 122.644 33.232C123.39 32.72 124.404 32.2187 125.684 31.728C126.942 31.2587 128.329 30.7253 129.844 30.128C130.185 28.8693 130.526 27.3547 130.868 25.584C131.209 23.792 131.582 21.68 131.988 19.248C132.137 18.0107 132.276 17.0507 132.404 16.368C132.532 15.664 132.66 15.1627 132.788 14.864C132.916 14.5653 133.054 14.384 133.204 14.32C133.374 14.256 133.556 14.224 133.748 14.224C133.94 14.224 134.185 14.32 134.484 14.512C134.804 14.704 135.092 14.9707 135.348 15.312C135.604 15.6533 135.732 16.0373 135.732 16.464C135.732 16.7413 135.678 17.1467 135.572 17.68C135.486 18.2133 135.326 18.8 135.092 19.44C134.878 20.08 134.569 20.688 134.164 21.264C133.865 22.8 133.588 24.208 133.332 25.488C133.076 26.768 132.82 27.9413 132.564 29.008C133.844 28.432 135.102 27.8027 136.34 27.12C137.577 26.4373 138.718 25.68 139.764 24.848C140.809 23.9947 141.694 23.0453 142.42 22C142.633 21.7013 142.846 21.552 143.06 21.552C143.166 21.552 143.273 21.616 143.38 21.744C143.508 21.872 143.572 22.0853 143.572 22.384C143.572 23.1947 143.241 24.016 142.58 24.848C141.918 25.6587 141.022 26.4693 139.892 27.28C138.761 28.0693 137.502 28.848 136.116 29.616C134.729 30.3627 133.3 31.0773 131.828 31.76C131.273 33.616 130.686 35.0347 130.068 36.016C129.47 37.0187 128.766 37.7013 127.956 38.064C127.166 38.448 126.228 38.64 125.14 38.64ZM134.228 10.608C133.822 10.608 133.481 10.48 133.204 10.224C132.926 9.968 132.788 9.54133 132.788 8.944C132.788 8.24 133.044 7.62133 133.556 7.088C134.089 6.53333 134.665 6.256 135.284 6.256C135.881 6.256 136.372 6.43733 136.756 6.8C137.161 7.16267 137.364 7.632 137.364 8.208C137.364 8.69866 137.214 9.11467 136.916 9.456C136.617 9.776 136.233 9.936 135.764 9.936C135.657 9.936 135.572 9.92533 135.508 9.904C135.209 10.2027 134.974 10.3947 134.804 10.48C134.633 10.5653 134.441 10.608 134.228 10.608ZM128.98 32.976C128.02 33.36 127.081 33.7013 126.164 34C125.246 34.32 124.446 34.5867 123.764 34.8C123.934 35.3333 124.18 35.696 124.5 35.888C124.798 36.1013 125.193 36.208 125.684 36.208C126.345 36.208 126.942 35.9947 127.476 35.568C127.988 35.1413 128.489 34.2773 128.98 32.976ZM144.122 30.832C143.311 30.832 142.639 30.4587 142.106 29.712C141.594 28.944 141.338 27.952 141.338 26.736C141.338 25.6053 141.615 24.4853 142.17 23.376C142.746 22.2667 143.503 21.2 144.442 20.176C145.38 19.152 146.404 18.2133 147.514 17.36C148.623 16.4853 149.732 15.728 150.842 15.088C151.972 14.448 153.007 13.9467 153.946 13.584C154.884 13.2213 155.631 13.04 156.186 13.04C156.484 13.04 156.73 13.104 156.922 13.232C157.114 13.3387 157.21 13.5413 157.21 13.84C157.21 14.032 157.135 14.2133 156.986 14.384C157.007 14.384 157.028 14.384 157.05 14.384C157.519 14.384 157.754 14.6613 157.754 15.216C157.754 15.408 157.679 15.8027 157.53 16.4C157.38 16.976 157.21 17.7013 157.018 18.576C156.826 19.4507 156.655 20.4213 156.506 21.488C156.356 22.5333 156.282 23.6 156.282 24.688C156.282 25.6053 156.634 26.064 157.338 26.064C158.127 26.064 158.927 25.8827 159.738 25.52C160.548 25.1573 161.338 24.72 162.106 24.208C162.874 23.6747 163.578 23.152 164.218 22.64C164.858 22.1067 165.402 21.6587 165.85 21.296C166.298 20.9333 166.618 20.752 166.81 20.752C166.98 20.752 167.13 20.8053 167.258 20.912C167.386 21.0187 167.45 21.1893 167.45 21.424C167.45 21.6373 167.236 22.0213 166.81 22.576C166.383 23.1307 165.818 23.76 165.114 24.464C164.41 25.168 163.62 25.8507 162.746 26.512C161.871 27.1733 160.975 27.7173 160.058 28.144C159.14 28.5707 158.266 28.784 157.434 28.784C156.794 28.784 156.207 28.592 155.674 28.208C155.162 27.8027 154.746 27.12 154.426 26.16C154.127 25.2 153.978 23.8773 153.978 22.192V21.392C152.932 23.12 151.834 24.6987 150.682 26.128C149.551 27.5573 148.42 28.6987 147.29 29.552C146.18 30.4053 145.124 30.832 144.122 30.832ZM155.578 15.344C155.471 15.3867 155.322 15.4507 155.13 15.536C154.148 15.984 153.124 16.5387 152.058 17.2C151.012 17.8613 149.988 18.5973 148.986 19.408C148.004 20.2187 147.119 21.0613 146.33 21.936C145.54 22.8107 144.911 23.696 144.442 24.592C143.972 25.488 143.738 26.3627 143.738 27.216C143.738 27.4933 143.791 27.7067 143.898 27.856C144.026 28.0053 144.239 28.08 144.538 28.08C144.964 28.08 145.519 27.8133 146.202 27.28C146.884 26.7253 147.631 26 148.442 25.104C149.274 24.208 150.106 23.216 150.938 22.128C151.77 21.04 152.559 19.9413 153.306 18.832C154.074 17.7227 154.735 16.6987 155.29 15.76C155.375 15.6107 155.471 15.472 155.578 15.344ZM183.501 30.032C182.584 30.032 181.933 29.8507 181.549 29.488C181.165 29.1253 180.973 28.592 180.973 27.888C180.973 24.3467 181.613 20.6453 182.893 16.784C184.173 12.9013 185.965 9.008 188.269 5.104C188.568 4.61333 188.803 4.304 188.973 4.176C189.165 4.048 189.389 3.984 189.645 3.984C189.944 3.984 190.211 4.09067 190.445 4.304C190.68 4.51733 190.797 4.80533 190.797 5.168C190.797 5.36 190.605 5.88267 190.221 6.736C189.837 7.568 189.347 8.64533 188.749 9.968C188.152 11.2907 187.512 12.7733 186.829 14.416C186.168 16.0373 185.539 17.7333 184.941 19.504C184.344 21.2747 183.864 23.0347 183.501 24.784C183.992 24.0587 184.579 23.28 185.261 22.448C185.965 21.616 186.712 20.784 187.501 19.952C188.291 19.12 189.091 18.3627 189.901 17.68C190.733 16.9973 191.533 16.4533 192.301 16.048C193.069 15.6427 193.773 15.44 194.413 15.44C195.245 15.44 195.971 15.792 196.589 16.496C197.229 17.1787 197.549 18.2133 197.549 19.6C197.549 20.7733 197.229 21.9787 196.589 23.216C195.949 24.432 195.011 25.5627 193.773 26.608C192.557 27.632 191.085 28.464 189.357 29.104C187.629 29.7227 185.677 30.032 183.501 30.032ZM183.629 27.6C185.4 27.6 187.011 27.3013 188.461 26.704C189.912 26.1067 191.149 25.3493 192.173 24.432C193.219 23.4933 194.019 22.5227 194.573 21.52C195.149 20.496 195.437 19.568 195.437 18.736C195.437 18.1387 195.235 17.84 194.829 17.84C194.339 17.84 193.709 18.0747 192.941 18.544C192.173 19.0133 191.341 19.632 190.445 20.4C189.571 21.168 188.696 22 187.821 22.896C186.947 23.7707 186.136 24.624 185.389 25.456C184.664 26.288 184.077 27.0027 183.629 27.6ZM213.202 16.208C213.202 16.8907 212.989 17.5627 212.562 18.224C212.135 18.864 211.57 19.4827 210.866 20.08C210.162 20.656 209.383 21.2 208.53 21.712C207.677 22.224 206.823 22.672 205.97 23.056C205.117 23.44 204.338 23.7493 203.634 23.984C203.463 24.816 203.378 25.552 203.378 26.192C203.378 26.5973 203.474 26.8853 203.666 27.056C203.858 27.2267 204.157 27.312 204.562 27.312C205.458 27.312 206.407 27.152 207.41 26.832C208.413 26.512 209.437 26.096 210.482 25.584C211.527 25.072 212.53 24.528 213.49 23.952C214.45 23.376 215.325 22.832 216.114 22.32C216.925 21.808 217.597 21.392 218.13 21.072C218.663 20.752 219.015 20.592 219.186 20.592C219.442 20.592 219.634 20.6773 219.762 20.848C219.911 20.9973 219.986 21.1787 219.986 21.392C219.986 21.5627 219.719 21.8933 219.186 22.384C218.674 22.8747 217.981 23.4507 217.106 24.112C216.231 24.752 215.25 25.4133 214.162 26.096C213.074 26.7787 211.943 27.4187 210.77 28.016C209.618 28.6133 208.498 29.0933 207.41 29.456C206.343 29.8187 205.383 30 204.53 30C203.421 30 202.557 29.584 201.938 28.752C201.319 27.92 201.01 26.6293 201.01 24.88C201.01 23.7067 201.159 22.5227 201.458 21.328C201.778 20.1333 202.205 18.992 202.738 17.904C203.293 16.7947 203.901 15.8133 204.562 14.96C205.245 14.0853 205.959 13.4027 206.706 12.912C207.453 12.4 208.178 12.144 208.882 12.144C210.226 12.144 211.282 12.5173 212.05 13.264C212.818 14.0107 213.202 14.992 213.202 16.208ZM204.306 21.52C204.967 21.1147 205.65 20.688 206.354 20.24C207.058 19.792 207.709 19.3333 208.306 18.864C208.903 18.3947 209.383 17.904 209.746 17.392C210.13 16.8587 210.322 16.3147 210.322 15.76C210.322 14.9707 209.895 14.576 209.042 14.576C208.509 14.576 207.943 14.9173 207.346 15.6C206.77 16.2613 206.215 17.1253 205.682 18.192C205.149 19.2587 204.69 20.368 204.306 21.52ZM242.949 29.04C242.928 29.3813 242.789 29.6587 242.533 29.872C242.277 30.0853 241.978 30.192 241.637 30.192C241.253 30.192 240.933 30.064 240.677 29.808C240.421 29.552 240.293 29.1573 240.293 28.624C240.293 27.2373 240.357 25.7333 240.485 24.112C240.613 22.4693 240.773 20.848 240.965 19.248C241.157 17.6267 241.349 16.1333 241.541 14.768C240.837 15.7707 240.069 16.88 239.237 18.096C238.426 19.312 237.594 20.5173 236.741 21.712C235.888 22.9067 235.056 24.0053 234.245 25.008C233.434 25.9893 232.698 26.7893 232.037 27.408C231.376 28.0053 230.832 28.304 230.405 28.304C229.616 28.304 228.933 27.9947 228.357 27.376C227.781 26.736 227.493 25.936 227.493 24.976C227.493 24.592 227.536 24.0693 227.621 23.408C227.706 22.7253 227.802 22.0107 227.909 21.264C228.016 20.5173 228.112 19.824 228.197 19.184C228.282 18.5227 228.325 18.032 228.325 17.712C228.325 17.4133 228.293 17.1573 228.229 16.944C228.186 16.7093 228.08 16.592 227.909 16.592C227.653 16.592 227.301 16.88 226.853 17.456C226.405 18.0107 225.904 18.7253 225.349 19.6C224.816 20.4747 224.261 21.4027 223.685 22.384C223.13 23.3653 222.608 24.2933 222.117 25.168C221.626 26.0213 221.21 26.6933 220.869 27.184C220.592 27.6533 220.336 27.9947 220.101 28.208C219.866 28.4213 219.578 28.528 219.237 28.528C218.832 28.528 218.458 28.3147 218.117 27.888C217.797 27.4613 217.637 26.9387 217.637 26.32C217.637 25.9573 217.701 25.392 217.829 24.624C217.957 23.8347 218.117 22.9707 218.309 22.032C218.522 21.0933 218.725 20.176 218.917 19.28C219.13 18.3627 219.312 17.584 219.461 16.944C219.632 16.2187 219.845 15.728 220.101 15.472C220.357 15.216 220.634 15.088 220.933 15.088C221.338 15.088 221.658 15.2373 221.893 15.536C222.149 15.8133 222.277 16.2507 222.277 16.848C222.277 16.9547 222.213 17.2427 222.085 17.712C221.957 18.16 221.797 18.7147 221.605 19.376C221.434 20.016 221.242 20.688 221.029 21.392C220.837 22.096 220.677 22.7467 220.549 23.344C221.018 22.5547 221.509 21.7013 222.021 20.784C222.554 19.8667 223.088 18.96 223.621 18.064C224.154 17.1467 224.688 16.3147 225.221 15.568C225.754 14.8 226.277 14.192 226.789 13.744C227.301 13.296 227.792 13.072 228.261 13.072C228.816 13.072 229.328 13.2427 229.797 13.584C230.288 13.9253 230.682 14.384 230.981 14.96C231.28 15.536 231.429 16.176 231.429 16.88C231.429 17.3707 231.344 18.064 231.173 18.96C231.002 19.8347 230.821 20.784 230.629 21.808C230.458 22.832 230.352 23.8027 230.309 24.72C230.309 24.9333 230.373 25.04 230.501 25.04C230.608 25.04 230.736 24.9653 230.885 24.816C231.504 24.1333 232.186 23.312 232.933 22.352C233.68 21.3707 234.437 20.336 235.205 19.248C235.994 18.16 236.773 17.0933 237.541 16.048C238.309 14.9813 239.024 14.0213 239.685 13.168C240.368 12.2933 240.965 11.6 241.477 11.088C242.01 10.576 242.426 10.32 242.725 10.32C243.365 10.32 243.856 10.5013 244.197 10.864C244.538 11.2267 244.709 11.8347 244.709 12.688C244.709 13.3707 244.656 14.256 244.549 15.344C244.464 16.432 244.346 17.616 244.197 18.896C244.069 20.176 243.92 21.4667 243.749 22.768C243.6 24.048 243.45 25.2427 243.301 26.352C243.152 27.44 243.034 28.336 242.949 29.04ZM250.951 18.8C250.375 18.8 249.863 18.672 249.415 18.416C248.988 18.1387 248.775 17.84 248.775 17.52C248.775 17.328 249.106 17.1147 249.767 16.88C250.45 16.624 251.335 16.3787 252.423 16.144C253.511 15.9093 254.695 15.7173 255.975 15.568C257.276 15.4187 258.546 15.344 259.783 15.344C260.85 15.344 261.586 15.4827 261.991 15.76C262.396 16.016 262.599 16.304 262.599 16.624C262.599 16.88 262.226 17.1467 261.479 17.424C260.754 17.68 259.804 17.9147 258.631 18.128C257.479 18.32 256.22 18.48 254.855 18.608C253.511 18.736 252.21 18.8 250.951 18.8ZM269.51 29.2C269.19 29.2 268.87 28.9653 268.55 28.496C268.251 28.0267 268.027 27.3653 267.878 26.512C267.728 25.616 267.59 24.592 267.462 23.44C267.334 22.288 267.227 21.1573 267.142 20.048C267.056 18.9387 266.992 17.9573 266.95 17.104C266.907 16.2507 266.886 15.6747 266.886 15.376C266.886 14.2667 267.056 13.4453 267.398 12.912C267.76 12.3573 268.219 12.08 268.774 12.08C269.158 12.08 269.435 12.1867 269.606 12.4C269.776 12.592 269.862 13.04 269.862 13.744C269.862 14.2133 269.872 14.8213 269.894 15.568C269.915 16.3147 269.947 17.1253 269.99 18C270.032 19.0453 270.075 20.1547 270.118 21.328C270.16 22.48 270.192 23.6213 270.214 24.752C270.726 23.8987 271.312 22.9493 271.974 21.904C272.656 20.8587 273.35 19.792 274.054 18.704C274.758 17.5947 275.44 16.5387 276.102 15.536C276.763 14.5333 277.35 13.6587 277.862 12.912C278.374 12.1653 278.768 11.6213 279.046 11.28C279.408 10.8533 279.739 10.5547 280.038 10.384C280.358 10.2133 280.635 10.128 280.87 10.128C281.19 10.128 281.446 10.2453 281.638 10.48C281.851 10.7147 281.958 11.0453 281.958 11.472C281.958 11.728 281.904 12.016 281.798 12.336C281.712 12.6347 281.552 12.944 281.318 13.264C280.742 14.1387 280.048 15.1627 279.238 16.336C278.427 17.5093 277.584 18.7253 276.71 19.984C275.835 21.2427 274.982 22.4693 274.15 23.664C273.318 24.8373 272.592 25.872 271.974 26.768C270.886 28.3893 270.064 29.2 269.51 29.2ZM284.56 30.16C284.154 30.16 283.792 30.0107 283.472 29.712C283.152 29.392 282.992 28.9013 282.992 28.24C282.992 27.7707 283.056 27.12 283.184 26.288C283.312 25.4347 283.482 24.5067 283.696 23.504C283.909 22.5013 284.133 21.5093 284.368 20.528C284.624 19.5253 284.88 18.6293 285.136 17.84C285.392 17.0507 285.616 16.464 285.808 16.08C285.978 15.7813 286.138 15.5893 286.288 15.504C286.458 15.4187 286.618 15.376 286.768 15.376C287.066 15.376 287.322 15.472 287.536 15.664C287.77 15.856 287.888 16.2293 287.888 16.784C287.888 17.104 287.824 17.6373 287.696 18.384C287.589 19.1093 287.44 19.9627 287.248 20.944C287.077 21.904 286.885 22.896 286.672 23.92C286.48 24.9227 286.288 25.8827 286.096 26.8C285.904 27.7173 285.754 28.4853 285.648 29.104C285.562 29.4453 285.413 29.712 285.2 29.904C285.008 30.0747 284.794 30.16 284.56 30.16ZM287.696 12.464C287.205 12.464 286.736 12.3147 286.288 12.016C285.861 11.7173 285.648 11.2373 285.648 10.576C285.648 10.0213 285.776 9.57333 286.032 9.232C286.309 8.89067 286.629 8.64533 286.992 8.496C287.376 8.32533 287.706 8.24 287.984 8.24C288.261 8.24 288.57 8.304 288.912 8.432C289.274 8.53867 289.584 8.752 289.84 9.072C290.096 9.37067 290.224 9.81867 290.224 10.416C290.224 10.8213 290.085 11.184 289.808 11.504C289.53 11.8027 289.189 12.0373 288.784 12.208C288.4 12.3787 288.037 12.464 287.696 12.464ZM294.91 29.264C294.291 29.264 293.736 28.912 293.246 28.208C292.755 27.504 292.51 26.5973 292.51 25.488C292.51 24.272 292.67 22.9707 292.99 21.584C293.331 20.1973 293.747 18.7893 294.238 17.36C294.728 15.9093 295.208 14.512 295.678 13.168C295.784 12.8907 295.934 12.688 296.126 12.56C296.339 12.4107 296.659 12.336 297.086 12.336C297.854 12.336 298.238 12.7093 298.238 13.456C298.238 13.6267 298.152 14.0107 297.982 14.608C297.811 15.2053 297.587 15.9413 297.31 16.816C297.054 17.6907 296.787 18.64 296.51 19.664C296.232 20.6667 295.987 21.68 295.774 22.704C295.56 23.728 295.411 24.6773 295.326 25.552C295.667 25.1893 296.051 24.6347 296.478 23.888C296.926 23.1413 297.406 22.2987 297.918 21.36C298.43 20.4 298.963 19.44 299.518 18.48C300.072 17.4987 300.627 16.6027 301.182 15.792C301.758 14.96 302.312 14.2987 302.846 13.808C303.4 13.296 303.912 13.04 304.382 13.04C305.064 13.04 305.64 13.2533 306.11 13.68C306.6 14.0853 306.974 14.8107 307.23 15.856C307.507 16.88 307.646 18.3307 307.646 20.208C307.646 21.2107 307.742 22.1493 307.934 23.024C308.147 23.8987 308.478 24.6027 308.926 25.136C309.395 25.648 309.992 25.904 310.718 25.904C311.806 25.904 312.776 25.712 313.63 25.328C314.483 24.9227 315.219 24.4747 315.838 23.984C316.478 23.472 317.011 23.024 317.438 22.64C317.864 22.2347 318.195 22.032 318.43 22.032C318.92 22.032 319.166 22.288 319.166 22.8C319.166 23.0133 319.006 23.3547 318.686 23.824C318.387 24.272 317.96 24.784 317.406 25.36C316.872 25.9147 316.254 26.4587 315.55 26.992C314.867 27.504 314.131 27.9307 313.342 28.272C312.574 28.6133 311.795 28.784 311.006 28.784C309.534 28.784 308.328 28.496 307.39 27.92C306.472 27.344 305.79 26.3947 305.342 25.072C304.915 23.7493 304.702 21.9787 304.702 19.76C304.702 18.544 304.627 17.6587 304.478 17.104C304.35 16.528 304.104 16.144 303.742 15.952C303.486 16.4 303.155 17.04 302.75 17.872C302.344 18.6827 301.875 19.5893 301.342 20.592C300.83 21.5947 300.286 22.608 299.71 23.632C299.155 24.6347 298.59 25.5627 298.014 26.416C297.438 27.2693 296.883 27.9627 296.35 28.496C295.816 29.008 295.336 29.264 294.91 29.264ZM329.429 13.904C330.005 12.5173 330.549 11.088 331.061 9.616C331.595 8.144 332.075 6.64 332.501 5.104C332.629 4.67733 332.821 4.336 333.077 4.08C333.355 3.80267 333.675 3.664 334.037 3.664C334.293 3.664 334.507 3.76 334.677 3.952C334.869 4.144 334.965 4.4 334.965 4.72C334.965 5.12533 334.805 5.82933 334.485 6.832C334.187 7.83467 333.803 9.104 333.333 10.64C332.885 12.176 332.427 13.9467 331.957 15.952C331.509 17.936 331.125 20.1333 330.805 22.544C330.507 24.9547 330.357 27.5253 330.357 30.256C330.357 30.8533 330.229 31.344 329.973 31.728C329.717 32.1333 329.408 32.336 329.045 32.336C328.832 32.336 328.629 32.2827 328.437 32.176C328.245 32.0693 328.075 31.8133 327.925 31.408C327.797 31.024 327.691 30.416 327.605 29.584C327.52 28.7307 327.477 27.5787 327.477 26.128C327.477 25.0187 327.541 23.8133 327.669 22.512C326.688 24.2827 325.621 25.8293 324.469 27.152C323.339 28.4533 322.24 29.456 321.173 30.16C320.128 30.864 319.232 31.216 318.485 31.216C317.568 31.216 316.821 30.9067 316.245 30.288C315.691 29.6907 315.413 28.7947 315.413 27.6C315.413 26.5547 315.659 25.4773 316.149 24.368C316.64 23.2587 317.291 22.1707 318.101 21.104C318.912 20.016 319.808 18.992 320.789 18.032C321.771 17.072 322.752 16.2293 323.733 15.504C324.736 14.7573 325.664 14.1813 326.517 13.776C327.371 13.3493 328.064 13.136 328.597 13.136C328.811 13.136 329.003 13.2107 329.173 13.36C329.344 13.5093 329.429 13.6907 329.429 13.904ZM329.013 14.896C328.864 15.0453 328.683 15.1947 328.469 15.344C328.256 15.4933 328.021 15.6533 327.765 15.824C326.827 16.4853 325.792 17.2533 324.661 18.128C323.552 18.9813 322.485 19.92 321.461 20.944C320.459 21.9467 319.637 23.0027 318.997 24.112C318.357 25.2213 318.037 26.3627 318.037 27.536C318.037 28.048 318.293 28.304 318.805 28.304C319.509 28.304 320.277 27.9733 321.109 27.312C321.963 26.6293 322.837 25.6907 323.733 24.496C324.629 23.28 325.525 21.8613 326.421 20.24C327.317 18.5973 328.181 16.816 329.013 14.896ZM341.542 30.32C340.284 30.32 339.292 29.84 338.566 28.88C337.841 27.92 337.478 26.672 337.478 25.136C337.478 24.5813 337.553 23.9947 337.702 23.376C337.873 22.736 338.086 22.16 338.342 21.648C338.193 21.4987 338.076 21.296 337.99 21.04C337.905 20.7627 337.862 20.4213 337.862 20.016C337.862 18.7573 338.076 17.6053 338.502 16.56C338.929 15.5147 339.494 14.608 340.198 13.84C340.902 13.0507 341.681 12.4427 342.534 12.016C343.409 11.5893 344.294 11.376 345.19 11.376C346.662 11.376 347.857 11.9093 348.774 12.976C349.692 14.0213 350.15 15.6213 350.15 17.776C350.15 18.9067 349.98 20.0587 349.638 21.232C349.318 22.4053 348.87 23.536 348.294 24.624C347.74 25.712 347.089 26.6827 346.342 27.536C345.617 28.3893 344.838 29.072 344.006 29.584C343.196 30.0747 342.374 30.32 341.542 30.32ZM340.454 20.56C340.582 20.7307 340.646 20.9547 340.646 21.232C340.646 21.552 340.582 21.872 340.454 22.192C340.348 22.512 340.23 22.9493 340.102 23.504C339.974 24.0587 339.91 24.848 339.91 25.872C339.91 26.896 340.316 27.408 341.126 27.408C342.022 27.408 342.854 27.056 343.622 26.352C344.39 25.6267 345.073 24.6987 345.67 23.568C346.268 22.4373 346.726 21.232 347.046 19.952C347.388 18.6507 347.558 17.424 347.558 16.272C347.558 15.5253 347.42 15.0027 347.142 14.704C346.865 14.384 346.364 14.224 345.638 14.224C344.892 14.224 344.113 14.48 343.302 14.992C342.513 15.4827 341.852 16.1547 341.318 17.008C340.785 17.8613 340.518 18.8213 340.518 19.888C340.518 20.1227 340.497 20.3467 340.454 20.56ZM362.765 35.952C362.21 35.952 361.528 35.664 360.717 35.088C359.928 34.512 359.138 33.6693 358.349 32.56C357.56 31.4507 356.898 30.096 356.365 28.496C355.832 26.896 355.565 25.0827 355.565 23.056C355.565 21.4987 355.81 19.9307 356.301 18.352C356.813 16.7733 357.485 15.248 358.317 13.776C359.17 12.304 360.098 10.928 361.101 9.648C362.125 8.368 363.16 7.248 364.205 6.288C365.25 5.328 366.221 4.58133 367.117 4.048C368.034 3.51467 368.802 3.248 369.421 3.248C369.826 3.248 370.125 3.344 370.317 3.536C370.509 3.728 370.605 3.93067 370.605 4.144C370.605 4.42133 370.434 4.67733 370.093 4.912C367.896 6.448 365.933 8.144 364.205 10C362.498 11.856 361.154 13.8933 360.173 16.112C359.192 18.3307 358.701 20.752 358.701 23.376C358.701 24.912 358.882 26.288 359.245 27.504C359.608 28.6987 360.045 29.7333 360.557 30.608C361.09 31.504 361.613 32.2613 362.125 32.88C362.658 33.4987 363.106 33.9893 363.469 34.352C363.832 34.736 364.013 35.0133 364.013 35.184C364.013 35.376 363.928 35.5467 363.757 35.696C363.608 35.8667 363.277 35.952 362.765 35.952ZM369.997 30.832C369.186 30.832 368.514 30.4587 367.981 29.712C367.469 28.944 367.213 27.952 367.213 26.736C367.213 25.6053 367.49 24.4853 368.045 23.376C368.621 22.2667 369.378 21.2 370.317 20.176C371.255 19.152 372.279 18.2133 373.389 17.36C374.498 16.4853 375.607 15.728 376.717 15.088C377.847 14.448 378.882 13.9467 379.821 13.584C380.759 13.2213 381.506 13.04 382.061 13.04C382.359 13.04 382.605 13.104 382.797 13.232C382.989 13.3387 383.085 13.5413 383.085 13.84C383.085 14.032 383.01 14.2133 382.861 14.384C382.882 14.384 382.903 14.384 382.925 14.384C383.394 14.384 383.629 14.6613 383.629 15.216C383.629 15.408 383.554 15.8027 383.405 16.4C383.255 16.976 383.085 17.7013 382.893 18.576C382.701 19.4507 382.53 20.4213 382.381 21.488C382.231 22.5333 382.157 23.6 382.157 24.688C382.157 25.6053 382.509 26.064 383.213 26.064C384.002 26.064 384.802 25.8827 385.613 25.52C386.423 25.1573 387.213 24.72 387.981 24.208C388.749 23.6747 389.453 23.152 390.093 22.64C390.733 22.1067 391.277 21.6587 391.725 21.296C392.173 20.9333 392.493 20.752 392.685 20.752C392.855 20.752 393.005 20.8053 393.133 20.912C393.261 21.0187 393.325 21.1893 393.325 21.424C393.325 21.6373 393.111 22.0213 392.685 22.576C392.258 23.1307 391.693 23.76 390.989 24.464C390.285 25.168 389.495 25.8507 388.621 26.512C387.746 27.1733 386.85 27.7173 385.933 28.144C385.015 28.5707 384.141 28.784 383.309 28.784C382.669 28.784 382.082 28.592 381.549 28.208C381.037 27.8027 380.621 27.12 380.301 26.16C380.002 25.2 379.853 23.8773 379.853 22.192V21.392C378.807 23.12 377.709 24.6987 376.557 26.128C375.426 27.5573 374.295 28.6987 373.165 29.552C372.055 30.4053 370.999 30.832 369.997 30.832ZM381.453 15.344C381.346 15.3867 381.197 15.4507 381.005 15.536C380.023 15.984 378.999 16.5387 377.933 17.2C376.887 17.8613 375.863 18.5973 374.861 19.408C373.879 20.2187 372.994 21.0613 372.205 21.936C371.415 22.8107 370.786 23.696 370.317 24.592C369.847 25.488 369.613 26.3627 369.613 27.216C369.613 27.4933 369.666 27.7067 369.773 27.856C369.901 28.0053 370.114 28.08 370.413 28.08C370.839 28.08 371.394 27.8133 372.077 27.28C372.759 26.7253 373.506 26 374.317 25.104C375.149 24.208 375.981 23.216 376.813 22.128C377.645 21.04 378.434 19.9413 379.181 18.832C379.949 17.7227 380.61 16.6987 381.165 15.76C381.25 15.6107 381.346 15.472 381.453 15.344ZM388.112 35.248C387.323 35.248 386.928 34.96 386.928 34.384C386.928 34.0853 387.099 33.8187 387.44 33.584C388.635 32.7947 389.829 31.8773 391.024 30.832C392.24 29.808 393.349 28.6133 394.352 27.248C395.355 25.8827 396.155 24.3147 396.752 22.544C397.371 20.752 397.68 18.704 397.68 16.4C397.68 14.6933 397.52 13.1467 397.2 11.76C396.901 10.352 396.517 9.104 396.048 8.016C395.6 6.90667 395.141 5.94667 394.672 5.136C394.224 4.32533 393.84 3.65333 393.52 3.12C393.221 2.56533 393.072 2.14933 393.072 1.872C393.072 1.65866 393.136 1.47733 393.264 1.328C393.392 1.15733 393.648 1.072 394.032 1.072C394.459 1.072 395.045 1.424 395.792 2.128C396.539 2.832 397.296 3.856 398.064 5.2C398.832 6.52267 399.483 8.144 400.016 10.064C400.549 11.984 400.816 14.1707 400.816 16.624C400.816 18.3947 400.528 20.1653 399.952 21.936C399.376 23.7067 398.619 25.392 397.68 26.992C396.741 28.592 395.707 30.0107 394.576 31.248C393.445 32.4853 392.315 33.456 391.184 34.16C390.053 34.8853 389.029 35.248 388.112 35.248ZM402.444 40.08C401.783 40.2507 401.345 40.24 401.132 40.048C400.919 39.856 400.812 39.6427 400.812 39.408C400.812 39.2373 400.865 39.0667 400.972 38.896C401.079 38.7467 401.281 38.576 401.58 38.384C402.647 37.7227 403.511 36.7627 404.172 35.504C404.812 34.2667 405.324 32.848 405.708 31.248C406.092 29.6693 406.391 28.0587 406.604 26.416C406.668 25.9893 406.785 25.6907 406.956 25.52C407.127 25.3493 407.319 25.264 407.532 25.264C408.065 25.264 408.535 25.488 408.94 25.936C409.367 26.3627 409.58 27.024 409.58 27.92C409.58 29.4133 409.356 30.8427 408.908 32.208C408.46 33.5733 407.873 34.8107 407.148 35.92C406.423 37.0293 405.644 37.9467 404.812 38.672C403.98 39.3973 403.191 39.8667 402.444 40.08Z" fill="#790AA5"/>
</svg>
