<svg width="257" height="72" viewBox="0 0 257 72" fill="none" xmlns="http://www.w3.org/2000/svg">
<path d="M24.176 33.8408C21.7013 33.8408 19.2053 33.5208 16.688 32.8808C14.1707 32.1981 11.888 31.3448 9.84 30.3208C9.15733 32.7528 8.51733 35.4194 7.92 38.3208C7.32267 41.2221 6.768 44.3368 6.256 47.6648C5.78667 50.0541 5.31733 51.6114 4.848 52.3368C4.37867 53.0621 3.78133 53.4248 3.056 53.4248C2.33067 53.4248 1.75467 53.0834 1.328 52.4008C0.901334 51.6754 0.688001 50.3314 0.688001 48.3688C0.688001 47.9848 0.794667 47.0888 1.008 45.6808C1.22133 44.2728 1.49867 42.5448 1.84 40.4968C2.224 38.4061 2.62933 36.1661 3.056 33.7768C3.48267 31.3448 3.90933 28.9128 4.336 26.4808C3.312 25.3714 2.8 24.3261 2.8 23.3448C2.8 22.8754 2.928 22.4274 3.184 22.0008C3.44 21.5314 3.97333 21.2968 4.784 21.2968C4.912 21.2968 5.06133 21.3181 5.232 21.3608C5.70133 18.8008 6.08533 16.5181 6.384 14.5128C6.72533 12.4648 6.91733 10.9928 6.96 10.0968C7.04533 8.56078 7.344 7.49411 7.856 6.89678C8.368 6.25678 8.96533 5.93678 9.648 5.93678C10.2027 5.93678 10.6507 6.17145 10.992 6.64078C11.3333 7.06744 11.504 8.15544 11.504 9.90478C11.504 11.0141 11.4187 12.5074 11.248 14.3848C13.3387 10.1181 15.5147 7.08878 17.776 5.29678C20.08 3.50478 22.64 2.60878 25.456 2.60878C28.016 2.60878 30.2133 3.31278 32.048 4.72078C33.8827 6.08611 35.2907 8.02744 36.272 10.5448C37.2533 13.0621 37.744 16.0274 37.744 19.4408C37.744 24.2621 36.5707 27.8674 34.224 30.2568C31.8773 32.6461 28.528 33.8408 24.176 33.8408ZM11.504 25.0088C13.1253 25.9474 14.9387 26.8221 16.944 27.6328C18.9493 28.4008 21.0187 28.7848 23.152 28.7848C26.608 28.7848 29.1253 28.0168 30.704 26.4808C32.3253 24.9021 33.136 22.3634 33.136 18.8648C33.136 14.8114 32.496 11.9314 31.216 10.2248C29.936 8.51811 28.1867 7.66478 25.968 7.66478C23.4507 7.66478 20.9333 9.07278 18.416 11.8888C15.8987 14.6621 13.5947 19.0354 11.504 25.0088ZM46.8615 55.4088C46.1788 55.4088 45.6028 55.1314 45.1335 54.5768C44.6642 54.0221 44.4295 53.2541 44.4295 52.2728C44.4295 51.5474 44.5788 50.3528 44.8775 48.6888C45.2188 46.9821 45.5815 44.9981 45.9655 42.7368C46.3922 40.4754 46.7548 38.1288 47.0535 35.6968C47.3522 33.2221 47.5015 30.8541 47.5015 28.5928C47.5015 27.4834 47.7788 26.6728 48.3335 26.1608C48.9308 25.6061 49.5922 25.3288 50.3175 25.3288C51.0002 25.3288 51.5122 25.7554 51.8535 26.6088C52.1948 27.4621 52.2588 29.1688 52.0455 31.7288C54.0082 27.3768 56.1628 23.8781 58.5095 21.2328C60.8988 18.5448 63.2668 16.6248 65.6135 15.4728C67.9602 14.2781 70.0722 13.6808 71.9495 13.6808C73.1868 13.6808 74.0828 13.9368 74.6375 14.4488C75.2348 14.9181 75.5335 15.4514 75.5335 16.0488C75.5335 16.8594 75.1922 17.4994 74.5095 17.9688C73.8695 18.3954 72.7388 18.9074 71.1175 19.5048C69.2402 20.2301 67.5122 21.0834 65.9335 22.0648C64.3975 23.0034 62.9255 24.2408 61.5175 25.7768C60.1522 27.3128 58.8082 29.2754 57.4855 31.6648C56.1628 34.0114 54.8402 36.9128 53.5175 40.3688C52.1948 43.8248 50.7868 47.9848 49.2935 52.8488C49.0375 53.7874 48.6962 54.4488 48.2695 54.8328C47.8855 55.2168 47.4162 55.4088 46.8615 55.4088ZM82.614 54.8328C80.0967 54.8328 78.1127 53.8728 76.662 51.9528C75.2113 50.0328 74.486 47.5368 74.486 44.4648C74.486 43.3554 74.6353 42.1821 74.934 40.9448C75.2753 39.6648 75.702 38.5128 76.214 37.4888C75.9153 37.1901 75.6807 36.7848 75.51 36.2728C75.3393 35.7181 75.254 35.0354 75.254 34.2248C75.254 31.7074 75.6807 29.4034 76.534 27.3128C77.3873 25.2221 78.518 23.4088 79.926 21.8728C81.334 20.2941 82.8913 19.0781 84.598 18.2248C86.3473 17.3714 88.118 16.9448 89.91 16.9448C92.854 16.9448 95.2433 18.0114 97.078 20.1448C98.9127 22.2354 99.83 25.4354 99.83 29.7448C99.83 32.0061 99.4887 34.3101 98.806 36.6568C98.166 39.0034 97.27 41.2648 96.118 43.4408C95.0087 45.6168 93.7073 47.5581 92.214 49.2648C90.7633 50.9714 89.206 52.3368 87.542 53.3608C85.9207 54.3421 84.278 54.8328 82.614 54.8328ZM80.438 35.3128C80.694 35.6541 80.822 36.1021 80.822 36.6568C80.822 37.2968 80.694 37.9368 80.438 38.5768C80.2247 39.2168 79.99 40.0914 79.734 41.2008C79.478 42.3101 79.35 43.8888 79.35 45.9368C79.35 47.9848 80.1607 49.0088 81.782 49.0088C83.574 49.0088 85.238 48.3048 86.774 46.8968C88.31 45.4461 89.6753 43.5901 90.87 41.3288C92.0647 39.0674 92.982 36.6568 93.622 34.0968C94.3047 31.4941 94.646 29.0408 94.646 26.7368C94.646 25.2434 94.3687 24.1981 93.814 23.6008C93.2593 22.9608 92.2567 22.6408 90.806 22.6408C89.3127 22.6408 87.7553 23.1528 86.134 24.1768C84.5553 25.1581 83.2327 26.5021 82.166 28.2088C81.0993 29.9154 80.566 31.8354 80.566 33.9688C80.566 34.4381 80.5233 34.8861 80.438 35.3128ZM98.0585 71.4728C95.9678 71.4728 94.2398 70.7901 92.8745 69.4248C91.5092 68.0594 90.8265 66.4168 90.8265 64.4968C90.8265 63.0034 91.5732 61.7234 93.0665 60.6568C94.5598 59.6328 96.5865 58.6301 99.1465 57.6488C101.664 56.7101 104.437 55.6434 107.467 54.4488C108.149 51.9314 108.832 48.9021 109.515 45.3608C110.197 41.7768 110.944 37.5528 111.755 32.6888C112.053 30.2141 112.331 28.2941 112.587 26.9288C112.843 25.5208 113.099 24.5181 113.355 23.9208C113.611 23.3234 113.888 22.9608 114.187 22.8328C114.528 22.7048 114.891 22.6408 115.275 22.6408C115.659 22.6408 116.149 22.8328 116.747 23.2168C117.387 23.6008 117.963 24.1341 118.475 24.8168C118.987 25.4994 119.243 26.2674 119.243 27.1208C119.243 27.6754 119.136 28.4861 118.923 29.5528C118.752 30.6194 118.432 31.7928 117.963 33.0728C117.536 34.3528 116.917 35.5688 116.107 36.7208C115.509 39.7928 114.955 42.6088 114.443 45.1688C113.931 47.7288 113.419 50.0754 112.907 52.2088C115.467 51.0568 117.984 49.7981 120.458 48.4328C122.933 47.0674 125.216 45.5528 127.307 43.8888C129.397 42.1821 131.168 40.2834 132.619 38.1928C133.045 37.5954 133.472 37.2968 133.899 37.2968C134.112 37.2968 134.325 37.4248 134.539 37.6808C134.795 37.9368 134.923 38.3634 134.923 38.9608C134.923 40.5821 134.261 42.2248 132.939 43.8888C131.616 45.5101 129.824 47.1314 127.563 48.7528C125.301 50.3314 122.784 51.8888 120.01 53.4248C117.237 54.9181 114.379 56.3474 111.435 57.7128C110.325 61.4248 109.152 64.2621 107.915 66.2248C106.72 68.2301 105.312 69.5954 103.691 70.3208C102.112 71.0888 100.234 71.4728 98.0585 71.4728ZM116.235 15.4088C115.424 15.4088 114.741 15.1528 114.187 14.6408C113.632 14.1288 113.355 13.2754 113.355 12.0808C113.355 10.6728 113.867 9.43544 114.891 8.36878C115.957 7.25944 117.109 6.70478 118.347 6.70478C119.541 6.70478 120.523 7.06744 121.291 7.79278C122.101 8.51811 122.507 9.45678 122.507 10.6088C122.507 11.5901 122.208 12.4221 121.611 13.1048C121.013 13.7448 120.245 14.0648 119.307 14.0648C119.093 14.0648 118.923 14.0434 118.795 14.0008C118.197 14.5981 117.728 14.9821 117.387 15.1528C117.045 15.3234 116.661 15.4088 116.235 15.4088ZM105.739 60.1448C103.819 60.9128 101.941 61.5954 100.106 62.1928C98.2718 62.8328 96.6718 63.3661 95.3065 63.7928C95.6478 64.8594 96.1385 65.5848 96.7785 65.9688C97.3758 66.3954 98.1652 66.6088 99.1465 66.6088C100.469 66.6088 101.664 66.1821 102.73 65.3288C103.755 64.4754 104.757 62.7474 105.739 60.1448ZM205.197 24.4968C205.197 25.0088 204.45 25.5848 202.957 26.2248C201.506 26.8648 199.543 27.5261 197.069 28.2088C194.594 28.8488 191.821 29.4888 188.749 30.1288C185.719 30.7688 182.605 31.3448 179.405 31.8568C178.253 35.8248 177.122 39.8354 176.013 43.8888C174.903 47.8994 173.943 51.6754 173.133 55.2168C172.962 55.8994 172.621 56.3901 172.109 56.6888C171.639 57.0301 171.106 57.2008 170.509 57.2008C169.826 57.2008 169.25 57.0088 168.781 56.6248C168.311 56.2834 168.077 55.8141 168.077 55.2168C168.077 54.1501 168.29 52.6141 168.717 50.6088C169.143 48.6034 169.698 46.2781 170.381 43.6328C171.106 40.9874 171.853 38.1714 172.621 35.1848C170.743 38.0861 168.674 40.8168 166.413 43.3768C164.151 45.9368 161.783 48.1981 159.309 50.1608C156.834 52.1234 154.295 53.6594 151.693 54.7688C149.133 55.8781 146.551 56.4328 143.949 56.4328C139.895 56.4328 136.93 55.3661 135.053 53.2328C133.175 51.0994 132.237 47.8994 132.237 43.6328C132.237 41.2434 132.514 38.8541 133.069 36.4648C133.666 34.0328 134.455 31.7288 135.437 29.5528C136.461 27.3768 137.591 25.4568 138.829 23.7928C140.066 22.0861 141.346 20.7421 142.669 19.7608C144.034 18.7794 145.335 18.2888 146.573 18.2888C148.962 18.2888 150.733 18.9501 151.885 20.2728C153.037 21.5954 153.613 23.2381 153.613 25.2008C153.613 27.2488 153.143 29.1901 152.205 31.0248C151.266 32.8594 150.007 34.5234 148.429 36.0168C146.85 37.5101 145.122 38.7901 143.245 39.8568C141.367 40.8808 139.511 41.5848 137.677 41.9688C137.634 42.3528 137.613 42.7368 137.613 43.1208C137.613 46.1501 138.167 48.2408 139.277 49.3928C140.429 50.5021 142.242 51.0568 144.717 51.0568C147.106 51.0568 149.623 50.3314 152.269 48.8808C154.957 47.4301 157.645 45.3821 160.333 42.7368C163.063 40.0914 165.666 36.9981 168.141 33.4568C166.306 33.6701 164.599 33.8408 163.021 33.9688C161.485 34.0541 160.141 34.0968 158.989 34.0968C157.794 34.0968 156.962 33.9261 156.493 33.5848C156.066 33.2434 155.853 32.6674 155.853 31.8568C155.853 31.5154 156.066 31.0888 156.493 30.5768C156.962 30.0648 157.474 29.7874 158.029 29.7448C160.503 29.5314 162.85 29.2968 165.069 29.0408C167.33 28.7848 169.485 28.5074 171.533 28.2088C172.642 26.3314 173.709 24.3688 174.733 22.3208C175.757 20.2301 176.717 18.0968 177.613 15.9208C178.423 13.0621 179.234 10.5021 180.045 8.24078C180.898 5.97944 181.773 4.20878 182.669 2.92878C183.607 1.60611 184.589 0.944778 185.613 0.944778C186.082 0.944778 186.487 1.15811 186.829 1.58478C187.213 2.01144 187.405 2.60878 187.405 3.37678C187.405 3.93144 187.106 5.33944 186.509 7.60078C185.911 9.81944 185.101 12.6141 184.077 15.9848C183.095 19.3128 182.029 22.9394 180.877 26.8648C187.618 25.7981 192.823 24.8381 196.493 23.9848C200.162 23.1314 202.487 22.7048 203.469 22.7048C204.023 22.7048 204.45 22.8968 204.749 23.2808C205.047 23.6221 205.197 24.0274 205.197 24.4968ZM138.381 37.1688C140.045 36.2728 141.645 35.1208 143.181 33.7128C144.717 32.3048 145.975 30.8328 146.957 29.2968C147.981 27.7608 148.493 26.3314 148.493 25.0088C148.493 23.8141 147.938 23.2168 146.829 23.2168C145.933 23.2168 144.93 23.8994 143.821 25.2648C142.754 26.5874 141.73 28.3154 140.749 30.4488C139.767 32.5821 138.978 34.8221 138.381 37.1688ZM206.802 54.8328C204.284 54.8328 202.3 53.8728 200.85 51.9528C199.399 50.0328 198.674 47.5368 198.674 44.4648C198.674 43.3554 198.823 42.1821 199.122 40.9448C199.463 39.6648 199.89 38.5128 200.402 37.4888C200.103 37.1901 199.868 36.7848 199.698 36.2728C199.527 35.7181 199.442 35.0354 199.442 34.2248C199.442 31.7074 199.868 29.4034 200.722 27.3128C201.575 25.2221 202.706 23.4088 204.114 21.8728C205.522 20.2941 207.079 19.0781 208.786 18.2248C210.535 17.3714 212.306 16.9448 214.098 16.9448C217.042 16.9448 219.431 18.0114 221.266 20.1448C223.1 22.2354 224.018 25.4354 224.018 29.7448C224.018 32.0061 223.676 34.3101 222.994 36.6568C222.354 39.0034 221.458 41.2648 220.306 43.4408C219.196 45.6168 217.895 47.5581 216.402 49.2648C214.951 50.9714 213.394 52.3368 211.73 53.3608C210.108 54.3421 208.466 54.8328 206.802 54.8328ZM204.626 35.3128C204.882 35.6541 205.01 36.1021 205.01 36.6568C205.01 37.2968 204.882 37.9368 204.626 38.5768C204.412 39.2168 204.178 40.0914 203.922 41.2008C203.666 42.3101 203.538 43.8888 203.538 45.9368C203.538 47.9848 204.348 49.0088 205.97 49.0088C207.762 49.0088 209.426 48.3048 210.962 46.8968C212.498 45.4461 213.863 43.5901 215.058 41.3288C216.252 39.0674 217.17 36.6568 217.81 34.0968C218.492 31.4941 218.834 29.0408 218.834 26.7368C218.834 25.2434 218.556 24.1981 218.002 23.6008C217.447 22.9608 216.444 22.6408 214.994 22.6408C213.5 22.6408 211.943 23.1528 210.322 24.1768C208.743 25.1581 207.42 26.5021 206.354 28.2088C205.287 29.9154 204.754 31.8354 204.754 33.9688C204.754 34.4381 204.711 34.8861 204.626 35.3128ZM241.293 55.6008C240.354 55.6008 239.629 55.3234 239.117 54.7688C238.648 54.2568 238.413 53.6594 238.413 52.9768C238.413 52.3794 238.669 51.8248 239.181 51.3128C239.736 50.7581 240.482 50.2674 241.421 49.8408C243.128 48.9448 244.728 48.0488 246.221 47.1528C247.757 46.2568 248.994 45.2968 249.933 44.2728C250.872 43.2488 251.341 42.1608 251.341 41.0088C251.341 40.0274 251.021 39.2808 250.381 38.7688C249.741 38.2141 248.866 37.9368 247.757 37.9368C247.117 37.9368 246.221 38.0648 245.069 38.3208C243.917 38.5341 242.658 38.7901 241.293 39.0888C239.97 39.3448 238.669 39.6008 237.389 39.8568C236.109 40.0701 235.021 40.1768 234.125 40.1768C232.504 40.1768 231.288 39.7928 230.477 39.0248C229.666 38.2141 229.261 37.1261 229.261 35.7608C229.261 35.0781 229.666 34.0541 230.477 32.6888C231.288 31.3234 232.354 29.8088 233.677 28.1448C235.042 26.4381 236.536 24.7314 238.157 23.0248C239.778 21.3181 241.421 19.7394 243.085 18.2888C244.792 16.8381 246.37 15.6648 247.821 14.7688C249.314 13.8728 250.552 13.4248 251.533 13.4248C252.514 13.4248 253.261 13.7448 253.773 14.3848C254.285 15.0248 254.541 15.8354 254.541 16.8168C254.541 17.5848 254.413 18.2461 254.157 18.8008C253.901 19.3128 253.368 19.7181 252.557 20.0168C251.789 20.3154 250.594 20.4861 248.973 20.5288C247.309 21.8514 245.538 23.3661 243.661 25.0728C241.826 26.7368 240.141 28.4648 238.605 30.2568C237.112 32.0061 236.024 33.6914 235.341 35.3128C236.749 34.8434 238.456 34.4381 240.461 34.0968C242.509 33.7128 244.578 33.5208 246.669 33.5208C249.954 33.5208 252.386 34.2674 253.965 35.7608C255.586 37.2114 256.397 39.1314 256.397 41.5208C256.397 43.0568 255.906 44.6568 254.925 46.3208C253.986 47.9421 252.749 49.4568 251.213 50.8648C249.677 52.2728 248.034 53.4034 246.285 54.2568C244.536 55.1528 242.872 55.6008 241.293 55.6008Z" fill="#790AA5"/>
</svg>
