<svg width="206" height="202" viewBox="0 0 206 202" fill="none" xmlns="http://www.w3.org/2000/svg">
<path d="M11.44 181.08C10.7733 181.08 10.0667 180.88 9.32 180.48C8.57333 180.08 7.88 179.427 7.24 178.52C6.62667 177.613 6.12 176.413 5.72 174.92C5.32 173.427 5.12 171.587 5.12 169.4C5.12 167.667 5.33333 165.907 5.76 164.12C6.21333 162.307 6.90667 160.6 7.84 159C8.8 157.373 10.0267 155.973 11.52 154.8C13.04 153.6 14.88 152.773 17.04 152.32C17.9733 152.107 19.0267 151.907 20.2 151.72C21.4 151.507 22.6133 151.32 23.84 151.16C25.0933 150.973 26.2667 150.827 27.36 150.72C28.48 150.613 29.4267 150.56 30.2 150.56C31.4533 150.56 32.3467 150.787 32.88 151.24C33.44 151.667 33.72 152.08 33.72 152.48C33.72 152.747 33.6133 153 33.4 153.24C33.1867 153.453 32.7733 153.587 32.16 153.64C31.92 153.667 31.4133 153.733 30.64 153.84C29.8667 153.92 28.9333 154.04 27.84 154.2C26.7467 154.36 25.6 154.533 24.4 154.72C23.2267 154.88 22.08 155.053 20.96 155.24C19.8667 155.4 18.92 155.547 18.12 155.68C15.9067 156.107 14.16 156.84 12.88 157.88C11.6 158.92 10.6667 160.147 10.08 161.56C9.49333 162.973 9.12 164.427 8.96 165.92C10.0267 165.68 11.1867 165.427 12.44 165.16C13.72 164.893 14.9467 164.653 16.12 164.44C17.2933 164.2 18.3067 164.013 19.16 163.88C20.04 163.747 20.6267 163.68 20.92 163.68C21.48 163.68 21.8267 163.8 21.96 164.04C22.12 164.28 22.2 164.587 22.2 164.96C22.2 165.68 21.0267 166.48 18.68 167.36C16.36 168.24 13.0667 168.987 8.8 169.6C8.8 170.507 8.81333 171.44 8.84 172.4C8.89333 173.333 8.97333 174.2 9.08 175C9.18667 175.8 9.32 176.44 9.48 176.92C9.64 177.4 9.85333 177.64 10.12 177.64C10.7333 177.64 11.5333 177.453 12.52 177.08C13.5333 176.707 14.5867 176.253 15.68 175.72C16.7733 175.187 17.7733 174.667 18.68 174.16C19.6133 173.653 20.2933 173.253 20.72 172.96C21.2267 172.64 21.7733 172.293 22.36 171.92C22.9467 171.547 23.3867 171.36 23.68 171.36C24.0533 171.36 24.24 171.573 24.24 172C24.24 172.24 24.0267 172.707 23.6 173.4C23.2 174.093 22.6133 174.88 21.84 175.76C21.0667 176.613 20.1467 177.453 19.08 178.28C18.04 179.08 16.8667 179.747 15.56 180.28C14.28 180.813 12.9067 181.08 11.44 181.08ZM63.7434 179.8C63.7168 180.227 63.5434 180.573 63.2234 180.84C62.9034 181.107 62.5301 181.24 62.1034 181.24C61.6234 181.24 61.2234 181.08 60.9034 180.76C60.5834 180.44 60.4234 179.947 60.4234 179.28C60.4234 177.547 60.5034 175.667 60.6634 173.64C60.8234 171.587 61.0234 169.56 61.2634 167.56C61.5034 165.533 61.7434 163.667 61.9834 161.96C61.1034 163.213 60.1434 164.6 59.1034 166.12C58.0901 167.64 57.0501 169.147 55.9834 170.64C54.9168 172.133 53.8768 173.507 52.8634 174.76C51.8501 175.987 50.9301 176.987 50.1034 177.76C49.2768 178.507 48.5968 178.88 48.0634 178.88C47.0768 178.88 46.2234 178.493 45.5034 177.72C44.7834 176.92 44.4234 175.92 44.4234 174.72C44.4234 174.24 44.4768 173.587 44.5834 172.76C44.6901 171.907 44.8101 171.013 44.9434 170.08C45.0768 169.147 45.1968 168.28 45.3034 167.48C45.4101 166.653 45.4634 166.04 45.4634 165.64C45.4634 165.267 45.4234 164.947 45.3434 164.68C45.2901 164.387 45.1568 164.24 44.9434 164.24C44.6234 164.24 44.1834 164.6 43.6234 165.32C43.0634 166.013 42.4368 166.907 41.7434 168C41.0768 169.093 40.3834 170.253 39.6634 171.48C38.9701 172.707 38.3168 173.867 37.7034 174.96C37.0901 176.027 36.5701 176.867 36.1434 177.48C35.7968 178.067 35.4768 178.493 35.1834 178.76C34.8901 179.027 34.5301 179.16 34.1034 179.16C33.5968 179.16 33.1301 178.893 32.7034 178.36C32.3034 177.827 32.1034 177.173 32.1034 176.4C32.1034 175.947 32.1834 175.24 32.3434 174.28C32.5034 173.293 32.7034 172.213 32.9434 171.04C33.2101 169.867 33.4634 168.72 33.7034 167.6C33.9701 166.453 34.1968 165.48 34.3834 164.68C34.5968 163.773 34.8634 163.16 35.1834 162.84C35.5034 162.52 35.8501 162.36 36.2234 162.36C36.7301 162.36 37.1301 162.547 37.4234 162.92C37.7434 163.267 37.9034 163.813 37.9034 164.56C37.9034 164.693 37.8234 165.053 37.6634 165.64C37.5034 166.2 37.3034 166.893 37.0634 167.72C36.8501 168.52 36.6101 169.36 36.3434 170.24C36.1034 171.12 35.9034 171.933 35.7434 172.68C36.3301 171.693 36.9434 170.627 37.5834 169.48C38.2501 168.333 38.9168 167.2 39.5834 166.08C40.2501 164.933 40.9168 163.893 41.5834 162.96C42.2501 162 42.9034 161.24 43.5434 160.68C44.1834 160.12 44.7968 159.84 45.3834 159.84C46.0768 159.84 46.7168 160.053 47.3034 160.48C47.9168 160.907 48.4101 161.48 48.7834 162.2C49.1568 162.92 49.3434 163.72 49.3434 164.6C49.3434 165.213 49.2368 166.08 49.0234 167.2C48.8101 168.293 48.5834 169.48 48.3434 170.76C48.1301 172.04 47.9968 173.253 47.9434 174.4C47.9434 174.667 48.0234 174.8 48.1834 174.8C48.3168 174.8 48.4768 174.707 48.6634 174.52C49.4368 173.667 50.2901 172.64 51.2234 171.44C52.1568 170.213 53.1034 168.92 54.0634 167.56C55.0501 166.2 56.0234 164.867 56.9834 163.56C57.9434 162.227 58.8368 161.027 59.6634 159.96C60.5168 158.867 61.2634 158 61.9034 157.36C62.5701 156.72 63.0901 156.4 63.4634 156.4C64.2634 156.4 64.8768 156.627 65.3034 157.08C65.7301 157.533 65.9434 158.293 65.9434 159.36C65.9434 160.213 65.8768 161.32 65.7434 162.68C65.6368 164.04 65.4901 165.52 65.3034 167.12C65.1434 168.72 64.9568 170.333 64.7434 171.96C64.5568 173.56 64.3701 175.053 64.1834 176.44C63.9968 177.8 63.8501 178.92 63.7434 179.8ZM96.2309 181.04C95.0843 181.04 94.2709 180.813 93.7909 180.36C93.3109 179.907 93.0709 179.24 93.0709 178.36C93.0709 173.933 93.8709 169.307 95.4709 164.48C97.0709 159.627 99.3109 154.76 102.191 149.88C102.564 149.267 102.858 148.88 103.071 148.72C103.311 148.56 103.591 148.48 103.911 148.48C104.284 148.48 104.618 148.613 104.911 148.88C105.204 149.147 105.351 149.507 105.351 149.96C105.351 150.2 105.111 150.853 104.631 151.92C104.151 152.96 103.538 154.307 102.791 155.96C102.044 157.613 101.244 159.467 100.391 161.52C99.5643 163.547 98.7776 165.667 98.0309 167.88C97.2843 170.093 96.6843 172.293 96.2309 174.48C96.8443 173.573 97.5776 172.6 98.4309 171.56C99.3109 170.52 100.244 169.48 101.231 168.44C102.218 167.4 103.218 166.453 104.231 165.6C105.271 164.747 106.271 164.067 107.231 163.56C108.191 163.053 109.071 162.8 109.871 162.8C110.911 162.8 111.818 163.24 112.591 164.12C113.391 164.973 113.791 166.267 113.791 168C113.791 169.467 113.391 170.973 112.591 172.52C111.791 174.04 110.618 175.453 109.071 176.76C107.551 178.04 105.711 179.08 103.551 179.88C101.391 180.653 98.9509 181.04 96.2309 181.04ZM96.3909 178C98.6043 178 100.618 177.627 102.431 176.88C104.244 176.133 105.791 175.187 107.071 174.04C108.378 172.867 109.378 171.653 110.071 170.4C110.791 169.12 111.151 167.96 111.151 166.92C111.151 166.173 110.898 165.8 110.391 165.8C109.778 165.8 108.991 166.093 108.031 166.68C107.071 167.267 106.031 168.04 104.911 169C103.818 169.96 102.724 171 101.631 172.12C100.538 173.213 99.5243 174.28 98.5909 175.32C97.6843 176.36 96.9509 177.253 96.3909 178ZM118.937 181.76C118.51 181.76 118.15 181.587 117.857 181.24C117.564 180.893 117.417 180.413 117.417 179.8C117.417 179.347 117.51 178.6 117.697 177.56C117.91 176.493 118.137 175.253 118.377 173.84C118.644 172.427 118.87 170.96 119.057 169.44C119.244 167.893 119.337 166.413 119.337 165C119.337 164.307 119.51 163.8 119.857 163.48C120.23 163.133 120.644 162.96 121.097 162.96C121.524 162.96 121.844 163.227 122.057 163.76C122.27 164.293 122.31 165.36 122.177 166.96C123.404 164.24 124.75 162.053 126.217 160.4C127.71 158.72 129.19 157.52 130.657 156.8C132.124 156.053 133.444 155.68 134.617 155.68C135.39 155.68 135.95 155.84 136.297 156.16C136.67 156.453 136.857 156.787 136.857 157.16C136.857 157.667 136.644 158.067 136.217 158.36C135.817 158.627 135.11 158.947 134.097 159.32C132.924 159.773 131.844 160.307 130.857 160.92C129.897 161.507 128.977 162.28 128.097 163.24C127.244 164.2 126.404 165.427 125.577 166.92C124.75 168.387 123.924 170.2 123.097 172.36C122.27 174.52 121.39 177.12 120.457 180.16C120.297 180.747 120.084 181.16 119.817 181.4C119.577 181.64 119.284 181.76 118.937 181.76ZM150.935 163.76C150.935 164.613 150.668 165.453 150.135 166.28C149.601 167.08 148.895 167.853 148.015 168.6C147.135 169.32 146.161 170 145.095 170.64C144.028 171.28 142.961 171.84 141.895 172.32C140.828 172.8 139.855 173.187 138.975 173.48C138.761 174.52 138.655 175.44 138.655 176.24C138.655 176.747 138.775 177.107 139.015 177.32C139.255 177.533 139.628 177.64 140.135 177.64C141.255 177.64 142.441 177.44 143.695 177.04C144.948 176.64 146.228 176.12 147.535 175.48C148.841 174.84 150.095 174.16 151.295 173.44C152.495 172.72 153.588 172.04 154.575 171.4C155.588 170.76 156.428 170.24 157.095 169.84C157.761 169.44 158.201 169.24 158.415 169.24C158.735 169.24 158.975 169.347 159.135 169.56C159.321 169.747 159.415 169.973 159.415 170.24C159.415 170.453 159.081 170.867 158.415 171.48C157.775 172.093 156.908 172.813 155.815 173.64C154.721 174.44 153.495 175.267 152.135 176.12C150.775 176.973 149.361 177.773 147.895 178.52C146.455 179.267 145.055 179.867 143.695 180.32C142.361 180.773 141.161 181 140.095 181C138.708 181 137.628 180.48 136.855 179.44C136.081 178.4 135.695 176.787 135.695 174.6C135.695 173.133 135.881 171.653 136.255 170.16C136.655 168.667 137.188 167.24 137.855 165.88C138.548 164.493 139.308 163.267 140.135 162.2C140.988 161.107 141.881 160.253 142.815 159.64C143.748 159 144.655 158.68 145.535 158.68C147.215 158.68 148.535 159.147 149.495 160.08C150.455 161.013 150.935 162.24 150.935 163.76ZM139.815 170.4C140.641 169.893 141.495 169.36 142.375 168.8C143.255 168.24 144.068 167.667 144.815 167.08C145.561 166.493 146.161 165.88 146.615 165.24C147.095 164.573 147.335 163.893 147.335 163.2C147.335 162.213 146.801 161.72 145.735 161.72C145.068 161.72 144.361 162.147 143.615 163C142.895 163.827 142.201 164.907 141.535 166.24C140.868 167.573 140.295 168.96 139.815 170.4ZM161.788 180C161.388 180 160.988 179.707 160.588 179.12C160.215 178.533 159.935 177.707 159.748 176.64C159.561 175.52 159.388 174.24 159.228 172.8C159.068 171.36 158.935 169.947 158.828 168.56C158.721 167.173 158.641 165.947 158.588 164.88C158.535 163.813 158.508 163.093 158.508 162.72C158.508 161.333 158.721 160.307 159.148 159.64C159.601 158.947 160.175 158.6 160.868 158.6C161.348 158.6 161.695 158.733 161.908 159C162.121 159.24 162.228 159.8 162.228 160.68C162.228 161.267 162.241 162.027 162.268 162.96C162.295 163.893 162.335 164.907 162.388 166C162.441 167.307 162.495 168.693 162.548 170.16C162.601 171.6 162.641 173.027 162.668 174.44C163.308 173.373 164.041 172.187 164.868 170.88C165.721 169.573 166.588 168.24 167.468 166.88C168.348 165.493 169.201 164.173 170.028 162.92C170.855 161.667 171.588 160.573 172.228 159.64C172.868 158.707 173.361 158.027 173.708 157.6C174.161 157.067 174.575 156.693 174.948 156.48C175.348 156.267 175.695 156.16 175.988 156.16C176.388 156.16 176.708 156.307 176.948 156.6C177.215 156.893 177.348 157.307 177.348 157.84C177.348 158.16 177.281 158.52 177.148 158.92C177.041 159.293 176.841 159.68 176.548 160.08C175.828 161.173 174.961 162.453 173.948 163.92C172.935 165.387 171.881 166.907 170.788 168.48C169.695 170.053 168.628 171.587 167.588 173.08C166.548 174.547 165.641 175.84 164.868 176.96C163.508 178.987 162.481 180 161.788 180ZM194.099 163.76C194.099 164.613 193.832 165.453 193.299 166.28C192.765 167.08 192.059 167.853 191.179 168.6C190.299 169.32 189.325 170 188.259 170.64C187.192 171.28 186.125 171.84 185.059 172.32C183.992 172.8 183.019 173.187 182.139 173.48C181.925 174.52 181.819 175.44 181.819 176.24C181.819 176.747 181.939 177.107 182.179 177.32C182.419 177.533 182.792 177.64 183.299 177.64C184.419 177.64 185.605 177.44 186.859 177.04C188.112 176.64 189.392 176.12 190.699 175.48C192.005 174.84 193.259 174.16 194.459 173.44C195.659 172.72 196.752 172.04 197.739 171.4C198.752 170.76 199.592 170.24 200.259 169.84C200.925 169.44 201.365 169.24 201.579 169.24C201.899 169.24 202.139 169.347 202.299 169.56C202.485 169.747 202.579 169.973 202.579 170.24C202.579 170.453 202.245 170.867 201.579 171.48C200.939 172.093 200.072 172.813 198.979 173.64C197.885 174.44 196.659 175.267 195.299 176.12C193.939 176.973 192.525 177.773 191.059 178.52C189.619 179.267 188.219 179.867 186.859 180.32C185.525 180.773 184.325 181 183.259 181C181.872 181 180.792 180.48 180.019 179.44C179.245 178.4 178.859 176.787 178.859 174.6C178.859 173.133 179.045 171.653 179.419 170.16C179.819 168.667 180.352 167.24 181.019 165.88C181.712 164.493 182.472 163.267 183.299 162.2C184.152 161.107 185.045 160.253 185.979 159.64C186.912 159 187.819 158.68 188.699 158.68C190.379 158.68 191.699 159.147 192.659 160.08C193.619 161.013 194.099 162.24 194.099 163.76ZM182.979 170.4C183.805 169.893 184.659 169.36 185.539 168.8C186.419 168.24 187.232 167.667 187.979 167.08C188.725 166.493 189.325 165.88 189.779 165.24C190.259 164.573 190.499 163.893 190.499 163.2C190.499 162.213 189.965 161.72 188.899 161.72C188.232 161.72 187.525 162.147 186.779 163C186.059 163.827 185.365 164.907 184.699 166.24C184.032 167.573 183.459 168.96 182.979 170.4Z" fill="#790AA5"/>
<path d="M22.877 125L103.5 4.49585L184.123 125H22.877Z" stroke="#790AA5" stroke-width="5"/>
<path d="M104.359 89.4256C102.274 86.2036 100.769 81.6241 99.6241 77.9933C96.7705 68.942 95.8347 60.2806 97.1926 50.7349C97.8391 46.1902 99.6365 40.9734 105.042 41.5208C107.203 41.7397 108.993 43.1084 110.417 44.6775C122.703 58.2239 105.511 72.9874 105.511 87.8899" stroke="#790AA5" stroke-width="3" stroke-linecap="round"/>
<path d="M105.511 62.5511H105.895" stroke="#790AA5" stroke-width="3" stroke-linecap="round"/>
<path d="M105.895 62.5511C105.168 60.0065 103.541 57.6222 102.695 55.086C102.429 54.2861 101.726 50.1381 103.442 50.7349C104.712 51.1765 105.134 52.7395 105.447 53.8915C105.6 54.4553 106.626 58.1476 104.871 56.2804C102.417 53.67 100.415 48.4504 103.207 45.6586" stroke="#790AA5" stroke-width="3" stroke-linecap="round"/>
<path d="M104.001 55.3243C103.553 55.8219 103.844 55.4903 103.15 56.3405C103.077 56.4291 100.858 59.282 100.667 58.9274C100.504 58.6258 100.671 58.2401 100.717 57.9005C100.815 57.172 100.984 56.4546 101.1 55.7286C101.439 53.6026 101.804 51.3905 101.769 49.2272C101.768 49.1588 101.801 48.2217 101.397 48.7263C100.416 49.9499 99.741 51.6742 99.0709 53.0629C98.5641 54.1131 97.8395 55.3728 97.518 56.5265C97.3462 57.143 97.6212 58.4216 97.6897 58.9024C97.9654 60.8356 98.179 61.9212 98.5843 63.8902C98.915 65.4972 99.4759 67.2192 99.4859 68.8852C99.4922 69.9357 99.1298 70.983 99.2927 72.0339C99.5373 73.6123 99.9584 75.1637 100.227 76.7391C100.404 77.7789 100.466 78.661 101.028 79.5944C101.309 80.0617 101.642 80.5089 101.869 81.0078C102.147 81.6202 102.324 82.2763 102.61 82.8934C102.942 83.6134 103.427 84.3317 103.658 85.094C103.736 85.3526 103.879 85.9772 103.873 85.3086C103.857 83.5766 103.671 81.842 103.747 80.1097C103.791 79.1238 104.01 78.2164 104.252 77.2651C104.588 75.9437 104.843 74.669 104.914 73.3006C105.077 70.162 104.466 67.1467 104.123 64.0477C103.958 62.5572 104.048 61.1558 104.162 59.6681C104.319 57.6366 104.314 55.6192 104.388 53.5853" stroke="#790AA5" stroke-width="3" stroke-linecap="round"/>
<path d="M98.7202 53.7141C99.1469 57.0959 99.7044 60.4616 100.159 63.8401C100.605 67.1593 100.956 70.4773 101.676 73.7514C101.969 75.0871 102.282 76.3729 102.327 77.7445C102.335 78.0013 102.317 78.223 102.391 78.4458" stroke="#790AA5" stroke-width="3" stroke-linecap="round"/>
<path d="M100.652 57.514C101.662 61.7293 102.612 65.965 103.386 70.2306C103.767 72.3341 104.13 74.4382 104.13 76.5781" stroke="#790AA5" stroke-width="3" stroke-linecap="round"/>
<path d="M102.713 56.226C102.786 59.5809 103.052 62.927 103.293 66.2732" stroke="#790AA5" stroke-width="3" stroke-linecap="round"/>
<path d="M102.778 47.0803C105.082 48.4951 107.439 50.2019 108.989 52.4618C110.049 54.0063 110.449 55.3482 110.463 57.1777C110.469 57.8965 110.094 59.6816 109.891 60.448C109.617 61.481 109.245 62.5761 108.832 63.5681" stroke="#790AA5" stroke-width="3" stroke-linecap="round"/>
<path d="M105.354 49.0126C105.847 54.8896 106.225 60.7769 106.642 66.6597" stroke="#790AA5" stroke-width="3" stroke-linecap="round"/>
<path d="M105.29 80.056C106.195 77.2516 107.075 74.486 107.655 71.5974C108.053 69.6135 108.421 67.6514 108.639 65.6363C108.897 63.2505 109.014 60.8543 108.914 58.4551C108.883 57.7063 108.832 56.9527 108.639 56.226" stroke="#790AA5" stroke-width="3" stroke-linecap="round"/>
<path d="M106.127 70.0088C106.631 66.5752 106.816 63.0709 106.821 59.6037C106.824 57.304 106.696 55.0437 106.871 52.7481C106.918 52.1332 106.964 51.5188 106.964 50.9018C106.964 50.7986 106.974 50.7685 107.028 50.6871" stroke="#790AA5" stroke-width="3" stroke-linecap="round"/>
<path d="M102.713 45.9211C103.647 45.8056 104.597 45.7693 105.536 45.7815C107.107 45.802 109.1 45.7124 109.852 47.3738C110.479 48.7601 110.744 50.4606 111.043 51.9251C111.526 54.2923 111.889 56.6724 112.245 59.0598" stroke="#790AA5" stroke-width="3" stroke-linecap="round"/>
<path d="M106.449 46.243C107.074 47.1374 107.375 47.577 108.002 48.44C108.408 49 108.923 49.556 109.24 50.1789C109.505 50.7005 109.555 51.2748 109.605 51.8463" stroke="#790AA5" stroke-width="3" stroke-linecap="round"/>
<path d="M111.215 50.6871C111.607 52.094 112.172 53.5231 112.331 54.9808C112.397 55.5773 112.183 56.0932 111.923 56.6124" stroke="#790AA5" stroke-width="3" stroke-linecap="round"/>
<path d="M108.223 54.1332C108.273 55.5677 108.265 57.0309 108.556 58.4439C108.648 58.8873 108.86 59.9534 109.384 60.202C109.682 60.3433 109.758 59.6921 109.804 59.5803C110.022 59.0509 110.84 59.0154 111.311 58.8721C111.508 58.8122 112.239 58.4191 112.398 58.8186C112.647 59.4462 112.548 60.3979 112.616 61.0501C112.699 61.8478 112.941 62.6899 112.917 63.4957C112.898 64.0972 112.575 65.2384 111.928 65.5049C111.104 65.8451 110.488 61.9998 110.603 61.4042C110.649 61.1651 110.749 61.0631 110.718 61.4248C110.624 62.5197 110.455 63.6146 110.327 64.7062C110.215 65.6568 110.069 66.5928 109.878 67.5306C109.832 67.7553 109.712 68.102 109.746 68.3541C109.794 68.7007 109.779 69.0498 109.779 69.3998" stroke="#790AA5" stroke-width="3" stroke-linecap="round"/>
<path d="M99.4778 48.4267C99.5331 47.5971 99.5169 47.6386 99.6589 46.6728C99.816 45.6051 99.867 44.1947 100.347 43.202C100.557 42.7662 101.31 43.0861 101.627 43.1402C102.33 43.2603 103.029 43.3754 103.739 43.449C104.348 43.5122 104.902 43.6001 105.472 43.8319C105.919 44.0132 106 44.1319 106.074 44.573" stroke="#790AA5" stroke-width="3" stroke-linecap="round"/>
<path d="M101.553 45.3882C102.862 45.1432 104.182 44.8365 105.522 44.8365C106.002 44.8365 106.413 44.9487 106.889 44.8694C107.258 44.8079 107.63 44.7675 108.001 44.7212" stroke="#790AA5" stroke-width="3" stroke-linecap="round"/>
<path d="M100.664 47.8339C100.031 48.4814 99.1593 49.5363 99.0332 50.4607C98.9679 50.9396 99.0832 51.5006 99.1073 51.984" stroke="#790AA5" stroke-width="3" stroke-linecap="round"/>
<path d="M103.924 85.037C103.841 85.7019 103.702 86.3348 103.702 87.005C103.702 87.8293 104.303 88.7888 104.657 89.5083C104.7 89.5941 104.911 90.0996 105.007 90.1423C105.471 90.3485 105.667 88.5361 105.703 88.446" stroke="#790AA5" stroke-width="3" stroke-linecap="round"/>
<circle cx="105" cy="104" r="8" fill="#790AA5"/>
</svg>
