<svg width="267" height="25" viewBox="0 0 267 25" fill="none" xmlns="http://www.w3.org/2000/svg">
<path d="M16.725 23.175C16.425 23.175 16.1667 23.0417 15.95 22.775C15.75 22.5083 15.65 22.0417 15.65 21.375C15.65 20.9917 15.725 20.5417 15.875 20.025C16.2083 18.975 16.55 17.85 16.9 16.65C17.2667 15.45 17.6083 14.225 17.925 12.975C18.2583 11.725 18.525 10.5167 18.725 9.35C18.925 8.16667 19.025 7.08333 19.025 6.1C19.025 5.76667 19.0083 5.44167 18.975 5.125C18.9583 4.80833 18.9167 4.50833 18.85 4.225C17.1667 5.825 15.6083 8 14.175 10.75C12.7583 13.4833 11.4667 16.6667 10.3 20.3C10.1 20.85 9.85 21.2333 9.55 21.45C9.25 21.6667 8.96667 21.775 8.7 21.775C8.46667 21.775 8.24167 21.6833 8.025 21.5C7.80833 21.3 7.7 21 7.7 20.6C7.7 20.3333 7.76667 19.9583 7.9 19.475C8.03333 18.975 8.26667 18.5167 8.6 18.1C8.78333 17 8.93333 15.8333 9.05 14.6C9.18333 13.3667 9.25 12.225 9.25 11.175C9.25 10.6917 9.225 10.2417 9.175 9.825C9.14167 9.39167 9.08333 9.01667 9 8.7C8.13333 9.61667 7.325 10.7667 6.575 12.15C5.84167 13.5167 5.19167 14.9917 4.625 16.575C4.05833 18.1417 3.58333 19.675 3.2 21.175C2.9 22.2583 2.41667 22.8 1.75 22.8C1.48333 22.8 1.25833 22.6583 1.075 22.375C0.908333 22.0917 0.825 21.6667 0.825 21.1C0.825 20.55 0.958333 19.8083 1.225 18.875C1.49167 17.9417 1.85 16.9167 2.3 15.8C2.76667 14.6833 3.28333 13.575 3.85 12.475C4.43333 11.3583 5.03333 10.3417 5.65 9.425C6.28333 8.49167 6.9 7.74167 7.5 7.175C8.1 6.60833 8.64167 6.325 9.125 6.325C9.44167 6.325 9.725 6.38333 9.975 6.5C10.225 6.61667 10.4417 6.85833 10.625 7.225C10.8083 7.575 10.9417 8.11667 11.025 8.85C11.125 9.56667 11.175 10.525 11.175 11.725C11.175 11.9417 11.175 12.1917 11.175 12.475C11.6583 11.1417 12.2167 9.85 12.85 8.6C13.5 7.33333 14.1833 6.2 14.9 5.2C15.6167 4.2 16.3333 3.40833 17.05 2.825C17.7667 2.24167 18.4417 1.95 19.075 1.95C19.7917 1.95 20.375 2.34167 20.825 3.125C21.275 3.89167 21.5 5.1 21.5 6.75C21.5 8.31667 21.375 9.84167 21.125 11.325C20.875 12.8083 20.5583 14.2083 20.175 15.525C19.8083 16.8417 19.425 18.0417 19.025 19.125C18.6417 20.1917 18.3083 21.1083 18.025 21.875C17.8417 22.3417 17.65 22.675 17.45 22.875C17.25 23.075 17.0083 23.175 16.725 23.175ZM26.7924 23.125C26.4757 23.125 26.1924 23.0083 25.9424 22.775C25.6924 22.525 25.5674 22.1417 25.5674 21.625C25.5674 21.2583 25.6174 20.75 25.7174 20.1C25.8174 19.4333 25.9507 18.7083 26.1174 17.925C26.284 17.1417 26.459 16.3667 26.6424 15.6C26.8424 14.8167 27.0424 14.1167 27.2424 13.5C27.4424 12.8833 27.6174 12.425 27.7674 12.125C27.9007 11.8917 28.0257 11.7417 28.1424 11.675C28.2757 11.6083 28.4007 11.575 28.5174 11.575C28.7507 11.575 28.9507 11.65 29.1174 11.8C29.3007 11.95 29.3924 12.2417 29.3924 12.675C29.3924 12.925 29.3424 13.3417 29.2424 13.925C29.159 14.4917 29.0424 15.1583 28.8924 15.925C28.759 16.675 28.609 17.45 28.4424 18.25C28.2924 19.0333 28.1424 19.7833 27.9924 20.5C27.8424 21.2167 27.7257 21.8167 27.6424 22.3C27.5757 22.5667 27.459 22.775 27.2924 22.925C27.1424 23.0583 26.9757 23.125 26.7924 23.125ZM29.2424 9.3C28.859 9.3 28.4924 9.18333 28.1424 8.95C27.809 8.71667 27.6424 8.34167 27.6424 7.825C27.6424 7.39167 27.7424 7.04167 27.9424 6.775C28.159 6.50833 28.409 6.31667 28.6924 6.2C28.9924 6.06667 29.2507 6 29.4674 6C29.684 6 29.9257 6.05 30.1924 6.15C30.4757 6.23333 30.7174 6.4 30.9174 6.65C31.1174 6.88333 31.2174 7.23333 31.2174 7.7C31.2174 8.01667 31.109 8.3 30.8924 8.55C30.6757 8.78333 30.409 8.96667 30.0924 9.1C29.7924 9.23333 29.509 9.3 29.2424 9.3ZM34.8783 22.425C34.395 22.425 33.9617 22.15 33.5783 21.6C33.195 21.05 33.0033 20.3417 33.0033 19.475C33.0033 18.525 33.1283 17.5083 33.3783 16.425C33.645 15.3417 33.97 14.2417 34.3533 13.125C34.7367 11.9917 35.1117 10.9 35.4783 9.85C35.5617 9.63333 35.6783 9.475 35.8283 9.375C35.995 9.25833 36.245 9.2 36.5783 9.2C37.1783 9.2 37.4783 9.49167 37.4783 10.075C37.4783 10.2083 37.4117 10.5083 37.2783 10.975C37.145 11.4417 36.97 12.0167 36.7533 12.7C36.5533 13.3833 36.345 14.125 36.1283 14.925C35.9117 15.7083 35.72 16.5 35.5533 17.3C35.3867 18.1 35.27 18.8417 35.2033 19.525C35.47 19.2417 35.77 18.8083 36.1033 18.225C36.4533 17.6417 36.8283 16.9833 37.2283 16.25C37.6283 15.5 38.045 14.75 38.4783 14C38.9117 13.2333 39.345 12.5333 39.7783 11.9C40.2283 11.25 40.6617 10.7333 41.0783 10.35C41.5117 9.95 41.9117 9.75 42.2783 9.75C42.8117 9.75 43.2617 9.91667 43.6283 10.25C44.0117 10.5667 44.3033 11.1333 44.5033 11.95C44.72 12.75 44.8283 13.8833 44.8283 15.35C44.8283 16.1333 44.9033 16.8667 45.0533 17.55C45.22 18.2333 45.4783 18.7833 45.8283 19.2C46.195 19.6 46.6617 19.8 47.2283 19.8C48.0783 19.8 48.8367 19.65 49.5033 19.35C50.17 19.0333 50.745 18.6833 51.2283 18.3C51.7283 17.9 52.145 17.55 52.4783 17.25C52.8117 16.9333 53.07 16.775 53.2533 16.775C53.6367 16.775 53.8283 16.975 53.8283 17.375C53.8283 17.5417 53.7033 17.8083 53.4533 18.175C53.22 18.525 52.8867 18.925 52.4533 19.375C52.0367 19.8083 51.5533 20.2333 51.0033 20.65C50.47 21.05 49.895 21.3833 49.2783 21.65C48.6783 21.9167 48.07 22.05 47.4533 22.05C46.3033 22.05 45.3617 21.825 44.6283 21.375C43.9117 20.925 43.3783 20.1833 43.0283 19.15C42.695 18.1167 42.5283 16.7333 42.5283 15C42.5283 14.05 42.47 13.3583 42.3533 12.925C42.2533 12.475 42.0617 12.175 41.7783 12.025C41.5783 12.375 41.32 12.875 41.0033 13.525C40.6867 14.1583 40.32 14.8667 39.9033 15.65C39.5033 16.4333 39.0783 17.225 38.6283 18.025C38.195 18.8083 37.7533 19.5333 37.3033 20.2C36.8533 20.8667 36.42 21.4083 36.0033 21.825C35.5867 22.225 35.2117 22.425 34.8783 22.425ZM53.0846 24.125C52.7179 24.125 52.4346 24.0167 52.2346 23.8C52.0346 23.6 51.9346 23.0917 51.9346 22.275C51.9346 21.525 52.0679 20.55 52.3346 19.35C52.6012 18.1333 52.9596 16.7833 53.4096 15.3C53.8596 13.8167 54.3679 12.2833 54.9346 10.7C55.5012 9.1 56.0929 7.53333 56.7096 6C57.3429 4.45 57.9512 3.03333 58.5346 1.75C58.7512 1.28333 58.9762 0.958332 59.2096 0.774999C59.4429 0.591666 59.7179 0.499999 60.0346 0.499999C60.2512 0.499999 60.4346 0.566666 60.5846 0.7C60.7512 0.816666 60.8346 1.01667 60.8346 1.3C60.8346 1.4 60.7262 1.725 60.5096 2.275C60.3096 2.825 60.0262 3.55 59.6596 4.45C59.3096 5.35 58.9179 6.35833 58.4846 7.475C58.0512 8.59167 57.6096 9.76667 57.1596 11C56.7096 12.2333 56.2846 13.475 55.8846 14.725C55.4846 15.9583 55.1429 17.1417 54.8596 18.275C54.5762 19.4083 54.3846 20.425 54.2846 21.325C54.6846 20.8417 55.1429 20.225 55.6596 19.475C56.1762 18.725 56.7262 17.9167 57.3096 17.05C57.8929 16.1833 58.4846 15.325 59.0846 14.475C59.6846 13.625 60.2762 12.85 60.8596 12.15C61.4429 11.45 61.9846 10.8917 62.4846 10.475C63.0012 10.0417 63.4512 9.825 63.8346 9.825C64.4679 9.825 64.9762 10.025 65.3596 10.425C65.7596 10.8083 65.9596 11.4417 65.9596 12.325C65.9596 12.825 65.8596 13.425 65.6596 14.125C65.4762 14.825 65.2596 15.5583 65.0096 16.325C64.7596 17.0917 64.5346 17.825 64.3346 18.525C64.1512 19.225 64.0596 19.825 64.0596 20.325C64.0596 21.0083 64.3179 21.35 64.8346 21.35C65.6346 21.35 66.4346 21.175 67.2346 20.825C68.0512 20.475 68.8262 20.0417 69.5596 19.525C70.2929 18.9917 70.9679 18.4583 71.5846 17.925C72.2012 17.375 72.7262 16.9083 73.1596 16.525C73.6262 16.1083 74.0179 15.9 74.3346 15.9C74.7346 15.9 74.9346 16.1083 74.9346 16.525C74.9346 16.6417 74.9096 16.775 74.8596 16.925C74.8096 17.075 74.6762 17.2667 74.4596 17.5C74.1929 17.8 73.8096 18.1917 73.3096 18.675C72.8262 19.1583 72.2596 19.675 71.6096 20.225C70.9762 20.775 70.2846 21.2917 69.5346 21.775C68.8012 22.2583 68.0429 22.6583 67.2596 22.975C66.4929 23.275 65.7429 23.425 65.0096 23.425C64.0096 23.425 63.2346 23.1417 62.6846 22.575C62.1512 21.9917 61.8846 21.1917 61.8846 20.175C61.8846 19.5417 61.9846 18.775 62.1846 17.875C62.3846 16.975 62.6346 16.025 62.9346 15.025C63.2512 14.0083 63.5679 13.0167 63.8846 12.05C63.3512 12.4167 62.7679 12.9667 62.1346 13.7C61.5179 14.4167 60.8679 15.2333 60.1846 16.15C59.5012 17.05 58.8179 17.9667 58.1346 18.9C57.4679 19.8333 56.8179 20.7 56.1846 21.5C55.5679 22.2833 54.9929 22.9167 54.4596 23.4C53.9262 23.8833 53.4679 24.125 53.0846 24.125ZM74.3262 23.65C73.6928 23.65 73.1678 23.3583 72.7512 22.775C72.3512 22.175 72.1512 21.4 72.1512 20.45C72.1512 19.5667 72.3678 18.6917 72.8012 17.825C73.2512 16.9583 73.8428 16.125 74.5762 15.325C75.3095 14.525 76.1095 13.7917 76.9762 13.125C77.8428 12.4417 78.7095 11.85 79.5762 11.35C80.4595 10.85 81.2678 10.4583 82.0012 10.175C82.7345 9.89167 83.3178 9.75 83.7512 9.75C83.9845 9.75 84.1762 9.8 84.3262 9.9C84.4762 9.98333 84.5512 10.1417 84.5512 10.375C84.5512 10.525 84.4928 10.6667 84.3762 10.8C84.3928 10.8 84.4095 10.8 84.4262 10.8C84.7928 10.8 84.9762 11.0167 84.9762 11.45C84.9762 11.6 84.9178 11.9083 84.8012 12.375C84.6845 12.825 84.5512 13.3917 84.4012 14.075C84.2512 14.7583 84.1178 15.5167 84.0012 16.35C83.8845 17.1667 83.8262 18 83.8262 18.85C83.8262 19.5667 84.1012 19.925 84.6512 19.925C85.2678 19.925 85.8928 19.7833 86.5262 19.5C87.1595 19.2167 87.7762 18.875 88.3762 18.475C88.9762 18.0583 89.5262 17.65 90.0262 17.25C90.5262 16.8333 90.9512 16.4833 91.3012 16.2C91.6512 15.9167 91.9012 15.775 92.0512 15.775C92.1845 15.775 92.3012 15.8167 92.4012 15.9C92.5012 15.9833 92.5512 16.1167 92.5512 16.3C92.5512 16.4667 92.3845 16.7667 92.0512 17.2C91.7178 17.6333 91.2762 18.125 90.7262 18.675C90.1762 19.225 89.5595 19.7583 88.8762 20.275C88.1928 20.7917 87.4928 21.2167 86.7762 21.55C86.0595 21.8833 85.3762 22.05 84.7262 22.05C84.2262 22.05 83.7678 21.9 83.3512 21.6C82.9512 21.2833 82.6262 20.75 82.3762 20C82.1428 19.25 82.0262 18.2167 82.0262 16.9V16.275C81.2095 17.625 80.3512 18.8583 79.4512 19.975C78.5678 21.0917 77.6845 21.9833 76.8012 22.65C75.9345 23.3167 75.1095 23.65 74.3262 23.65ZM83.2762 11.55C83.1928 11.5833 83.0762 11.6333 82.9262 11.7C82.1595 12.05 81.3595 12.4833 80.5262 13C79.7095 13.5167 78.9095 14.0917 78.1262 14.725C77.3595 15.3583 76.6678 16.0167 76.0512 16.7C75.4345 17.3833 74.9428 18.075 74.5762 18.775C74.2095 19.475 74.0262 20.1583 74.0262 20.825C74.0262 21.0417 74.0678 21.2083 74.1512 21.325C74.2512 21.4417 74.4178 21.5 74.6512 21.5C74.9845 21.5 75.4178 21.2917 75.9512 20.875C76.4845 20.4417 77.0678 19.875 77.7012 19.175C78.3512 18.475 79.0012 17.7 79.6512 16.85C80.3012 16 80.9178 15.1417 81.5012 14.275C82.1012 13.4083 82.6178 12.6083 83.0512 11.875C83.1178 11.7583 83.1928 11.65 83.2762 11.55ZM94.3049 23.55C93.9382 23.55 93.6549 23.4417 93.4549 23.225C93.2715 23.025 93.1799 22.7917 93.1799 22.525C93.1799 22.2917 93.2799 22.075 93.4799 21.875C93.6965 21.6583 93.9882 21.4667 94.3549 21.3C95.0215 20.95 95.6465 20.6 96.2299 20.25C96.8299 19.9 97.3132 19.525 97.6799 19.125C98.0465 18.725 98.2299 18.3 98.2299 17.85C98.2299 17.4667 98.1049 17.175 97.8549 16.975C97.6049 16.7583 97.2632 16.65 96.8299 16.65C96.5799 16.65 96.2299 16.7 95.7799 16.8C95.3299 16.8833 94.8382 16.9833 94.3049 17.1C93.7882 17.2 93.2799 17.3 92.7799 17.4C92.2799 17.4833 91.8549 17.525 91.5049 17.525C90.8715 17.525 90.3965 17.375 90.0799 17.075C89.7632 16.7583 89.6049 16.3333 89.6049 15.8C89.6049 15.5333 89.7632 15.1333 90.0799 14.6C90.3965 14.0667 90.8132 13.475 91.3299 12.825C91.8632 12.1583 92.4465 11.4917 93.0799 10.825C93.7132 10.1583 94.3549 9.54167 95.0049 8.975C95.6715 8.40833 96.2882 7.95 96.8549 7.6C97.4382 7.25 97.9215 7.075 98.3049 7.075C98.6882 7.075 98.9799 7.2 99.1799 7.45C99.3799 7.7 99.4799 8.01667 99.4799 8.4C99.4799 8.7 99.4299 8.95833 99.3299 9.175C99.2299 9.375 99.0215 9.53333 98.7049 9.65C98.4049 9.76667 97.9382 9.83333 97.3049 9.85C96.6549 10.3667 95.9632 10.9583 95.2299 11.625C94.5132 12.275 93.8549 12.95 93.2549 13.65C92.6715 14.3333 92.2465 14.9917 91.9799 15.625C92.5299 15.4417 93.1965 15.2833 93.9799 15.15C94.7799 15 95.5882 14.925 96.4049 14.925C97.6882 14.925 98.6382 15.2167 99.2549 15.8C99.8882 16.3667 100.205 17.1167 100.205 18.05C100.205 18.65 100.013 19.275 99.6299 19.925C99.2632 20.5583 98.7799 21.15 98.1799 21.7C97.5799 22.25 96.9382 22.6917 96.2549 23.025C95.5716 23.375 94.9215 23.55 94.3049 23.55ZM116.024 24.125C115.657 24.125 115.374 24.0167 115.174 23.8C114.974 23.6 114.874 23.0917 114.874 22.275C114.874 21.525 115.007 20.55 115.274 19.35C115.541 18.1333 115.899 16.7833 116.349 15.3C116.799 13.8167 117.307 12.2833 117.874 10.7C118.441 9.1 119.032 7.53333 119.649 6C120.282 4.45 120.891 3.03333 121.474 1.75C121.691 1.28333 121.916 0.958332 122.149 0.774999C122.382 0.591666 122.657 0.499999 122.974 0.499999C123.191 0.499999 123.374 0.566666 123.524 0.7C123.691 0.816666 123.774 1.01667 123.774 1.3C123.774 1.4 123.666 1.725 123.449 2.275C123.249 2.825 122.966 3.55 122.599 4.45C122.249 5.35 121.857 6.35833 121.424 7.475C120.991 8.59167 120.549 9.76667 120.099 11C119.649 12.2333 119.224 13.475 118.824 14.725C118.424 15.9583 118.082 17.1417 117.799 18.275C117.516 19.4083 117.324 20.425 117.224 21.325C117.624 20.8417 118.082 20.225 118.599 19.475C119.116 18.725 119.666 17.9167 120.249 17.05C120.832 16.1833 121.424 15.325 122.024 14.475C122.624 13.625 123.216 12.85 123.799 12.15C124.382 11.45 124.924 10.8917 125.424 10.475C125.941 10.0417 126.391 9.825 126.774 9.825C127.407 9.825 127.916 10.025 128.299 10.425C128.699 10.8083 128.899 11.4417 128.899 12.325C128.899 12.825 128.799 13.425 128.599 14.125C128.416 14.825 128.199 15.5583 127.949 16.325C127.699 17.0917 127.474 17.825 127.274 18.525C127.091 19.225 126.999 19.825 126.999 20.325C126.999 21.0083 127.257 21.35 127.774 21.35C128.574 21.35 129.374 21.175 130.174 20.825C130.991 20.475 131.766 20.0417 132.499 19.525C133.232 18.9917 133.907 18.4583 134.524 17.925C135.141 17.375 135.666 16.9083 136.099 16.525C136.566 16.1083 136.957 15.9 137.274 15.9C137.674 15.9 137.874 16.1083 137.874 16.525C137.874 16.6417 137.849 16.775 137.799 16.925C137.749 17.075 137.616 17.2667 137.399 17.5C137.132 17.8 136.749 18.1917 136.249 18.675C135.766 19.1583 135.199 19.675 134.549 20.225C133.916 20.775 133.224 21.2917 132.474 21.775C131.741 22.2583 130.982 22.6583 130.199 22.975C129.432 23.275 128.682 23.425 127.949 23.425C126.949 23.425 126.174 23.1417 125.624 22.575C125.091 21.9917 124.824 21.1917 124.824 20.175C124.824 19.5417 124.924 18.775 125.124 17.875C125.324 16.975 125.574 16.025 125.874 15.025C126.191 14.0083 126.507 13.0167 126.824 12.05C126.291 12.4167 125.707 12.9667 125.074 13.7C124.457 14.4167 123.807 15.2333 123.124 16.15C122.441 17.05 121.757 17.9667 121.074 18.9C120.407 19.8333 119.757 20.7 119.124 21.5C118.507 22.2833 117.932 22.9167 117.399 23.4C116.866 23.8833 116.407 24.125 116.024 24.125ZM137.266 23.65C136.632 23.65 136.107 23.3583 135.691 22.775C135.291 22.175 135.091 21.4 135.091 20.45C135.091 19.5667 135.307 18.6917 135.741 17.825C136.191 16.9583 136.782 16.125 137.516 15.325C138.249 14.525 139.049 13.7917 139.916 13.125C140.782 12.4417 141.649 11.85 142.516 11.35C143.399 10.85 144.207 10.4583 144.941 10.175C145.674 9.89167 146.257 9.75 146.691 9.75C146.924 9.75 147.116 9.8 147.266 9.9C147.416 9.98333 147.491 10.1417 147.491 10.375C147.491 10.525 147.432 10.6667 147.316 10.8C147.332 10.8 147.349 10.8 147.366 10.8C147.732 10.8 147.916 11.0167 147.916 11.45C147.916 11.6 147.857 11.9083 147.741 12.375C147.624 12.825 147.491 13.3917 147.341 14.075C147.191 14.7583 147.057 15.5167 146.941 16.35C146.824 17.1667 146.766 18 146.766 18.85C146.766 19.5667 147.041 19.925 147.591 19.925C148.207 19.925 148.832 19.7833 149.466 19.5C150.099 19.2167 150.716 18.875 151.316 18.475C151.916 18.0583 152.466 17.65 152.966 17.25C153.466 16.8333 153.891 16.4833 154.241 16.2C154.591 15.9167 154.841 15.775 154.991 15.775C155.124 15.775 155.241 15.8167 155.341 15.9C155.441 15.9833 155.491 16.1167 155.491 16.3C155.491 16.4667 155.324 16.7667 154.991 17.2C154.657 17.6333 154.216 18.125 153.666 18.675C153.116 19.225 152.499 19.7583 151.816 20.275C151.132 20.7917 150.432 21.2167 149.716 21.55C148.999 21.8833 148.316 22.05 147.666 22.05C147.166 22.05 146.707 21.9 146.291 21.6C145.891 21.2833 145.566 20.75 145.316 20C145.082 19.25 144.966 18.2167 144.966 16.9V16.275C144.149 17.625 143.291 18.8583 142.391 19.975C141.507 21.0917 140.624 21.9833 139.741 22.65C138.874 23.3167 138.049 23.65 137.266 23.65ZM146.216 11.55C146.132 11.5833 146.016 11.6333 145.866 11.7C145.099 12.05 144.299 12.4833 143.466 13C142.649 13.5167 141.849 14.0917 141.066 14.725C140.299 15.3583 139.607 16.0167 138.991 16.7C138.374 17.3833 137.882 18.075 137.516 18.775C137.149 19.475 136.966 20.1583 136.966 20.825C136.966 21.0417 137.007 21.2083 137.091 21.325C137.191 21.4417 137.357 21.5 137.591 21.5C137.924 21.5 138.357 21.2917 138.891 20.875C139.424 20.4417 140.007 19.875 140.641 19.175C141.291 18.475 141.941 17.7 142.591 16.85C143.241 16 143.857 15.1417 144.441 14.275C145.041 13.4083 145.557 12.6083 145.991 11.875C146.057 11.7583 146.132 11.65 146.216 11.55ZM156.263 23.025C155.547 23.025 155.038 22.8833 154.738 22.6C154.438 22.3167 154.288 21.9 154.288 21.35C154.288 18.5833 154.788 15.6917 155.788 12.675C156.788 9.64167 158.188 6.6 159.988 3.55C160.222 3.16667 160.405 2.925 160.538 2.825C160.688 2.725 160.863 2.675 161.063 2.675C161.297 2.675 161.505 2.75833 161.688 2.925C161.872 3.09167 161.963 3.31667 161.963 3.6C161.963 3.75 161.813 4.15833 161.513 4.825C161.213 5.475 160.83 6.31667 160.363 7.35C159.897 8.38333 159.397 9.54167 158.863 10.825C158.347 12.0917 157.855 13.4167 157.388 14.8C156.922 16.1833 156.547 17.5583 156.263 18.925C156.647 18.3583 157.105 17.75 157.638 17.1C158.188 16.45 158.772 15.8 159.388 15.15C160.005 14.5 160.63 13.9083 161.263 13.375C161.913 12.8417 162.538 12.4167 163.138 12.1C163.738 11.7833 164.288 11.625 164.788 11.625C165.438 11.625 166.005 11.9 166.488 12.45C166.988 12.9833 167.238 13.7917 167.238 14.875C167.238 15.7917 166.988 16.7333 166.488 17.7C165.988 18.65 165.255 19.5333 164.288 20.35C163.338 21.15 162.188 21.8 160.838 22.3C159.488 22.7833 157.963 23.025 156.263 23.025ZM156.363 21.125C157.747 21.125 159.005 20.8917 160.138 20.425C161.272 19.9583 162.238 19.3667 163.038 18.65C163.855 17.9167 164.48 17.1583 164.913 16.375C165.363 15.575 165.588 14.85 165.588 14.2C165.588 13.7333 165.43 13.5 165.113 13.5C164.73 13.5 164.238 13.6833 163.638 14.05C163.038 14.4167 162.388 14.9 161.688 15.5C161.005 16.1 160.322 16.75 159.638 17.45C158.955 18.1333 158.322 18.8 157.738 19.45C157.172 20.1 156.713 20.6583 156.363 21.125ZM170.152 23.125C169.835 23.125 169.552 23.0083 169.302 22.775C169.052 22.525 168.927 22.1417 168.927 21.625C168.927 21.2583 168.977 20.75 169.077 20.1C169.177 19.4333 169.31 18.7083 169.477 17.925C169.643 17.1417 169.818 16.3667 170.002 15.6C170.202 14.8167 170.402 14.1167 170.602 13.5C170.802 12.8833 170.977 12.425 171.127 12.125C171.26 11.8917 171.385 11.7417 171.502 11.675C171.635 11.6083 171.76 11.575 171.877 11.575C172.11 11.575 172.31 11.65 172.477 11.8C172.66 11.95 172.752 12.2417 172.752 12.675C172.752 12.925 172.702 13.3417 172.602 13.925C172.518 14.4917 172.402 15.1583 172.252 15.925C172.118 16.675 171.968 17.45 171.802 18.25C171.652 19.0333 171.502 19.7833 171.352 20.5C171.202 21.2167 171.085 21.8167 171.002 22.3C170.935 22.5667 170.818 22.775 170.652 22.925C170.502 23.0583 170.335 23.125 170.152 23.125ZM172.602 9.3C172.218 9.3 171.852 9.18333 171.502 8.95C171.168 8.71667 171.002 8.34167 171.002 7.825C171.002 7.39167 171.102 7.04167 171.302 6.775C171.518 6.50833 171.768 6.31667 172.052 6.2C172.352 6.06667 172.61 6 172.827 6C173.043 6 173.285 6.05 173.552 6.15C173.835 6.23333 174.077 6.4 174.277 6.65C174.477 6.88333 174.577 7.23333 174.577 7.7C174.577 8.01667 174.468 8.3 174.252 8.55C174.035 8.78333 173.768 8.96667 173.452 9.1C173.152 9.23333 172.868 9.3 172.602 9.3ZM180.938 24C179.654 24 178.646 23.5833 177.913 22.75C177.196 21.9 176.838 20.7167 176.838 19.2C176.838 18.2667 176.963 17.175 177.213 15.925C177.479 14.6583 177.813 13.325 178.213 11.925C178.629 10.5083 179.079 9.10833 179.563 7.725C180.046 6.34167 180.513 5.05833 180.963 3.875C181.429 2.675 181.838 1.675 182.188 0.874999C182.388 0.424999 182.671 0.199998 183.038 0.199998C183.538 0.199998 183.788 0.508332 183.788 1.125C183.788 1.325 183.696 1.73333 183.513 2.35C183.329 2.96667 183.088 3.73333 182.788 4.65C182.488 5.55 182.163 6.55 181.813 7.65C181.463 8.75 181.104 9.88333 180.738 11.05C180.388 12.2 180.063 13.3417 179.763 14.475C179.463 15.5917 179.221 16.6417 179.038 17.625C178.854 18.6083 178.763 19.45 178.763 20.15C178.763 20.6 178.879 20.9583 179.113 21.225C179.363 21.475 179.696 21.6 180.113 21.6C180.879 21.6 181.646 21.45 182.413 21.15C183.196 20.8333 183.946 20.45 184.663 20C185.379 19.5333 186.029 19.075 186.613 18.625C187.213 18.1583 187.721 17.775 188.138 17.475C188.554 17.1583 188.846 17 189.013 17C189.379 17 189.563 17.2 189.563 17.6C189.563 17.7333 189.429 17.9833 189.163 18.35C188.896 18.7 188.538 19.1167 188.088 19.6C187.638 20.0833 187.113 20.5833 186.513 21.1C185.929 21.6 185.313 22.075 184.663 22.525C184.029 22.9583 183.388 23.3083 182.738 23.575C182.104 23.8583 181.504 24 180.938 24ZM189.561 23.125C189.244 23.125 188.961 23.0083 188.711 22.775C188.461 22.525 188.336 22.1417 188.336 21.625C188.336 21.2583 188.386 20.75 188.486 20.1C188.586 19.4333 188.719 18.7083 188.886 17.925C189.053 17.1417 189.228 16.3667 189.411 15.6C189.611 14.8167 189.811 14.1167 190.011 13.5C190.211 12.8833 190.386 12.425 190.536 12.125C190.669 11.8917 190.794 11.7417 190.911 11.675C191.044 11.6083 191.169 11.575 191.286 11.575C191.519 11.575 191.719 11.65 191.886 11.8C192.069 11.95 192.161 12.2417 192.161 12.675C192.161 12.925 192.111 13.3417 192.011 13.925C191.928 14.4917 191.811 15.1583 191.661 15.925C191.528 16.675 191.378 17.45 191.211 18.25C191.061 19.0333 190.911 19.7833 190.761 20.5C190.611 21.2167 190.494 21.8167 190.411 22.3C190.344 22.5667 190.228 22.775 190.061 22.925C189.911 23.0583 189.744 23.125 189.561 23.125ZM192.011 9.3C191.628 9.3 191.261 9.18333 190.911 8.95C190.578 8.71667 190.411 8.34167 190.411 7.825C190.411 7.39167 190.511 7.04167 190.711 6.775C190.928 6.50833 191.178 6.31667 191.461 6.2C191.761 6.06667 192.019 6 192.236 6C192.453 6 192.694 6.05 192.961 6.15C193.244 6.23333 193.486 6.4 193.686 6.65C193.886 6.88333 193.986 7.23333 193.986 7.7C193.986 8.01667 193.878 8.3 193.661 8.55C193.444 8.78333 193.178 8.96667 192.861 9.1C192.561 9.23333 192.278 9.3 192.011 9.3ZM205.206 10.425C205.656 9.34167 206.081 8.225 206.481 7.075C206.898 5.925 207.273 4.75 207.606 3.55C207.706 3.21667 207.856 2.95 208.056 2.75C208.273 2.53333 208.523 2.425 208.806 2.425C209.006 2.425 209.173 2.5 209.306 2.65C209.456 2.8 209.531 3 209.531 3.25C209.531 3.56667 209.406 4.11667 209.156 4.9C208.923 5.68333 208.623 6.675 208.256 7.875C207.906 9.075 207.548 10.4583 207.181 12.025C206.831 13.575 206.531 15.2917 206.281 17.175C206.048 19.0583 205.931 21.0667 205.931 23.2C205.931 23.6667 205.831 24.05 205.631 24.35C205.431 24.6667 205.19 24.825 204.906 24.825C204.74 24.825 204.581 24.7833 204.431 24.7C204.281 24.6167 204.148 24.4167 204.031 24.1C203.931 23.8 203.848 23.325 203.781 22.675C203.715 22.0083 203.681 21.1083 203.681 19.975C203.681 19.1083 203.731 18.1667 203.831 17.15C203.065 18.5333 202.231 19.7417 201.331 20.775C200.448 21.7917 199.59 22.575 198.756 23.125C197.94 23.675 197.24 23.95 196.656 23.95C195.94 23.95 195.356 23.7083 194.906 23.225C194.473 22.7583 194.256 22.0583 194.256 21.125C194.256 20.3083 194.448 19.4667 194.831 18.6C195.215 17.7333 195.723 16.8833 196.356 16.05C196.99 15.2 197.69 14.4 198.456 13.65C199.223 12.9 199.99 12.2417 200.756 11.675C201.54 11.0917 202.265 10.6417 202.931 10.325C203.598 9.99167 204.14 9.825 204.556 9.825C204.723 9.825 204.873 9.88333 205.006 10C205.14 10.1167 205.206 10.2583 205.206 10.425ZM204.881 11.2C204.765 11.3167 204.623 11.4333 204.456 11.55C204.29 11.6667 204.106 11.7917 203.906 11.925C203.173 12.4417 202.365 13.0417 201.481 13.725C200.615 14.3917 199.781 15.125 198.981 15.925C198.198 16.7083 197.556 17.5333 197.056 18.4C196.556 19.2667 196.306 20.1583 196.306 21.075C196.306 21.475 196.506 21.675 196.906 21.675C197.456 21.675 198.056 21.4167 198.706 20.9C199.373 20.3667 200.056 19.6333 200.756 18.7C201.456 17.75 202.156 16.6417 202.856 15.375C203.556 14.0917 204.231 12.7 204.881 11.2ZM212.266 23.65C211.632 23.65 211.107 23.3583 210.691 22.775C210.291 22.175 210.091 21.4 210.091 20.45C210.091 19.5667 210.307 18.6917 210.741 17.825C211.191 16.9583 211.782 16.125 212.516 15.325C213.249 14.525 214.049 13.7917 214.916 13.125C215.782 12.4417 216.649 11.85 217.516 11.35C218.399 10.85 219.207 10.4583 219.941 10.175C220.674 9.89167 221.257 9.75 221.691 9.75C221.924 9.75 222.116 9.8 222.266 9.9C222.416 9.98333 222.491 10.1417 222.491 10.375C222.491 10.525 222.432 10.6667 222.316 10.8C222.332 10.8 222.349 10.8 222.366 10.8C222.732 10.8 222.916 11.0167 222.916 11.45C222.916 11.6 222.857 11.9083 222.741 12.375C222.624 12.825 222.491 13.3917 222.341 14.075C222.191 14.7583 222.057 15.5167 221.941 16.35C221.824 17.1667 221.766 18 221.766 18.85C221.766 19.5667 222.041 19.925 222.591 19.925C223.207 19.925 223.832 19.7833 224.466 19.5C225.099 19.2167 225.716 18.875 226.316 18.475C226.916 18.0583 227.466 17.65 227.966 17.25C228.466 16.8333 228.891 16.4833 229.241 16.2C229.591 15.9167 229.841 15.775 229.991 15.775C230.124 15.775 230.241 15.8167 230.341 15.9C230.441 15.9833 230.491 16.1167 230.491 16.3C230.491 16.4667 230.324 16.7667 229.991 17.2C229.657 17.6333 229.216 18.125 228.666 18.675C228.116 19.225 227.499 19.7583 226.816 20.275C226.132 20.7917 225.432 21.2167 224.716 21.55C223.999 21.8833 223.316 22.05 222.666 22.05C222.166 22.05 221.707 21.9 221.291 21.6C220.891 21.2833 220.566 20.75 220.316 20C220.082 19.25 219.966 18.2167 219.966 16.9V16.275C219.149 17.625 218.291 18.8583 217.391 19.975C216.507 21.0917 215.624 21.9833 214.741 22.65C213.874 23.3167 213.049 23.65 212.266 23.65ZM221.216 11.55C221.132 11.5833 221.016 11.6333 220.866 11.7C220.099 12.05 219.299 12.4833 218.466 13C217.649 13.5167 216.849 14.0917 216.066 14.725C215.299 15.3583 214.607 16.0167 213.991 16.7C213.374 17.3833 212.882 18.075 212.516 18.775C212.149 19.475 211.966 20.1583 211.966 20.825C211.966 21.0417 212.007 21.2083 212.091 21.325C212.191 21.4417 212.357 21.5 212.591 21.5C212.924 21.5 213.357 21.2917 213.891 20.875C214.424 20.4417 215.007 19.875 215.641 19.175C216.291 18.475 216.941 17.7 217.591 16.85C218.241 16 218.857 15.1417 219.441 14.275C220.041 13.4083 220.557 12.6083 220.991 11.875C221.057 11.7583 221.132 11.65 221.216 11.55ZM238.483 10.425C238.933 9.34167 239.358 8.225 239.758 7.075C240.174 5.925 240.549 4.75 240.883 3.55C240.983 3.21667 241.133 2.95 241.333 2.75C241.549 2.53333 241.799 2.425 242.083 2.425C242.283 2.425 242.449 2.5 242.583 2.65C242.733 2.8 242.808 3 242.808 3.25C242.808 3.56667 242.683 4.11667 242.433 4.9C242.199 5.68333 241.899 6.675 241.533 7.875C241.183 9.075 240.824 10.4583 240.458 12.025C240.108 13.575 239.808 15.2917 239.558 17.175C239.324 19.0583 239.208 21.0667 239.208 23.2C239.208 23.6667 239.108 24.05 238.908 24.35C238.708 24.6667 238.466 24.825 238.183 24.825C238.016 24.825 237.858 24.7833 237.708 24.7C237.558 24.6167 237.424 24.4167 237.308 24.1C237.208 23.8 237.124 23.325 237.058 22.675C236.991 22.0083 236.958 21.1083 236.958 19.975C236.958 19.1083 237.008 18.1667 237.108 17.15C236.341 18.5333 235.508 19.7417 234.608 20.775C233.724 21.7917 232.866 22.575 232.033 23.125C231.216 23.675 230.516 23.95 229.933 23.95C229.216 23.95 228.633 23.7083 228.183 23.225C227.749 22.7583 227.533 22.0583 227.533 21.125C227.533 20.3083 227.724 19.4667 228.108 18.6C228.491 17.7333 228.999 16.8833 229.633 16.05C230.266 15.2 230.966 14.4 231.733 13.65C232.499 12.9 233.266 12.2417 234.033 11.675C234.816 11.0917 235.541 10.6417 236.208 10.325C236.874 9.99167 237.416 9.825 237.833 9.825C237.999 9.825 238.149 9.88333 238.283 10C238.416 10.1167 238.483 10.2583 238.483 10.425ZM238.158 11.2C238.041 11.3167 237.899 11.4333 237.733 11.55C237.566 11.6667 237.383 11.7917 237.183 11.925C236.449 12.4417 235.641 13.0417 234.758 13.725C233.891 14.3917 233.058 15.125 232.258 15.925C231.474 16.7083 230.833 17.5333 230.333 18.4C229.833 19.2667 229.583 20.1583 229.583 21.075C229.583 21.475 229.783 21.675 230.183 21.675C230.733 21.675 231.333 21.4167 231.983 20.9C232.649 20.3667 233.333 19.6333 234.033 18.7C234.733 17.75 235.433 16.6417 236.133 15.375C236.833 14.0917 237.508 12.7 238.158 11.2ZM253.954 12.225C253.954 12.7583 253.788 13.2833 253.454 13.8C253.121 14.3 252.679 14.7833 252.129 15.25C251.579 15.7 250.971 16.125 250.304 16.525C249.638 16.925 248.971 17.275 248.304 17.575C247.638 17.875 247.029 18.1167 246.479 18.3C246.346 18.95 246.279 19.525 246.279 20.025C246.279 20.3417 246.354 20.5667 246.504 20.7C246.654 20.8333 246.888 20.9 247.204 20.9C247.904 20.9 248.646 20.775 249.429 20.525C250.213 20.275 251.013 19.95 251.829 19.55C252.646 19.15 253.429 18.725 254.179 18.275C254.929 17.825 255.613 17.4 256.229 17C256.863 16.6 257.388 16.275 257.804 16.025C258.221 15.775 258.496 15.65 258.629 15.65C258.829 15.65 258.979 15.7167 259.079 15.85C259.196 15.9667 259.254 16.1083 259.254 16.275C259.254 16.4083 259.046 16.6667 258.629 17.05C258.229 17.4333 257.688 17.8833 257.004 18.4C256.321 18.9 255.554 19.4167 254.704 19.95C253.854 20.4833 252.971 20.9833 252.054 21.45C251.154 21.9167 250.279 22.2917 249.429 22.575C248.596 22.8583 247.846 23 247.179 23C246.313 23 245.638 22.675 245.154 22.025C244.671 21.375 244.429 20.3667 244.429 19C244.429 18.0833 244.546 17.1583 244.779 16.225C245.029 15.2917 245.363 14.4 245.779 13.55C246.213 12.6833 246.688 11.9167 247.204 11.25C247.738 10.5667 248.296 10.0333 248.879 9.65C249.463 9.25 250.029 9.05 250.579 9.05C251.629 9.05 252.454 9.34167 253.054 9.925C253.654 10.5083 253.954 11.275 253.954 12.225ZM247.004 16.375C247.521 16.0583 248.054 15.725 248.604 15.375C249.154 15.025 249.663 14.6667 250.129 14.3C250.596 13.9333 250.971 13.55 251.254 13.15C251.554 12.7333 251.704 12.3083 251.704 11.875C251.704 11.2583 251.371 10.95 250.704 10.95C250.288 10.95 249.846 11.2167 249.379 11.75C248.929 12.2667 248.496 12.9417 248.079 13.775C247.663 14.6083 247.304 15.475 247.004 16.375ZM260.931 23.55C260.564 23.55 260.281 23.4417 260.081 23.225C259.898 23.025 259.806 22.7917 259.806 22.525C259.806 22.2917 259.906 22.075 260.106 21.875C260.323 21.6583 260.614 21.4667 260.981 21.3C261.648 20.95 262.273 20.6 262.856 20.25C263.456 19.9 263.939 19.525 264.306 19.125C264.673 18.725 264.856 18.3 264.856 17.85C264.856 17.4667 264.731 17.175 264.481 16.975C264.231 16.7583 263.889 16.65 263.456 16.65C263.206 16.65 262.856 16.7 262.406 16.8C261.956 16.8833 261.464 16.9833 260.931 17.1C260.414 17.2 259.906 17.3 259.406 17.4C258.906 17.4833 258.481 17.525 258.131 17.525C257.498 17.525 257.023 17.375 256.706 17.075C256.389 16.7583 256.231 16.3333 256.231 15.8C256.231 15.5333 256.389 15.1333 256.706 14.6C257.023 14.0667 257.439 13.475 257.956 12.825C258.489 12.1583 259.073 11.4917 259.706 10.825C260.339 10.1583 260.981 9.54167 261.631 8.975C262.298 8.40833 262.914 7.95 263.481 7.6C264.064 7.25 264.548 7.075 264.931 7.075C265.314 7.075 265.606 7.2 265.806 7.45C266.006 7.7 266.106 8.01667 266.106 8.4C266.106 8.7 266.056 8.95833 265.956 9.175C265.856 9.375 265.648 9.53333 265.331 9.65C265.031 9.76667 264.564 9.83333 263.931 9.85C263.281 10.3667 262.589 10.9583 261.856 11.625C261.139 12.275 260.481 12.95 259.881 13.65C259.298 14.3333 258.873 14.9917 258.606 15.625C259.156 15.4417 259.823 15.2833 260.606 15.15C261.406 15 262.214 14.925 263.031 14.925C264.314 14.925 265.264 15.2167 265.881 15.8C266.514 16.3667 266.831 17.1167 266.831 18.05C266.831 18.65 266.639 19.275 266.256 19.925C265.889 20.5583 265.406 21.15 264.806 21.7C264.206 22.25 263.564 22.6917 262.881 23.025C262.198 23.375 261.548 23.55 260.931 23.55Z" fill="#790AA5"/>
</svg>
